<svg xmlns="http://www.w3.org/2000/svg" xmlns:xlink="http://www.w3.org/1999/xlink" width="160" zoomAndPan="magnify" viewBox="0 0 120 119.999999" height="160" preserveAspectRatio="xMidYMid meet" version="1.0"><defs><clipPath id="9cfc909d41"><path d="M 13 16.46875 L 82 16.46875 L 82 74 L 13 74 Z M 13 16.46875 " clip-rule="nonzero"/></clipPath><clipPath id="b29bf35257"><path d="M 13 69 L 106.710938 69 L 106.710938 103.46875 L 13 103.46875 Z M 13 69 " clip-rule="nonzero"/></clipPath><clipPath id="706c4ed4d1"><path d="M 13 18 L 106.710938 18 L 106.710938 103.46875 L 13 103.46875 Z M 13 18 " clip-rule="nonzero"/></clipPath></defs><g clip-path="url(#9cfc909d41)"><path fill="#ffffff" d="M 42.453125 67.695312 C 39.269531 73.195312 30.023438 70.414062 30.023438 70.414062 C 25.761719 69.292969 22.441406 72.035156 22.4375 72.039062 C 21.667969 72.738281 20.648438 73.164062 19.523438 73.164062 C 17.128906 73.164062 15.1875 71.21875 15.1875 68.816406 C 15.1875 67.136719 16.140625 65.679688 17.53125 64.957031 C 17.179688 64.234375 16.984375 63.421875 16.984375 62.566406 C 16.984375 59.546875 19.425781 57.101562 22.433594 57.101562 C 24.738281 57.101562 26.710938 58.535156 27.507812 60.558594 C 28.230469 60.089844 29.09375 59.816406 30.023438 59.816406 C 32.585938 59.816406 34.664062 61.898438 34.664062 64.46875 C 34.664062 65.902344 34.015625 67.179688 33 68.035156 C 36.730469 70.617188 42.453125 67.695312 42.453125 67.695312 Z M 76.007812 42.414062 C 73.738281 42.636719 71.460938 42.261719 69.332031 41.4375 C 67.273438 40.640625 65.4375 40.347656 63.957031 40.28125 C 64.183594 39.5625 64.3125 38.800781 64.3125 38.003906 C 64.3125 33.898438 60.992188 30.570312 56.898438 30.570312 C 56.28125 30.570312 55.683594 30.648438 55.113281 30.789062 C 54.613281 28.019531 52.199219 25.917969 49.296875 25.917969 C 47.699219 25.917969 46.246094 26.558594 45.183594 27.59375 C 45.1875 27.519531 45.1875 27.441406 45.1875 27.363281 C 45.1875 24.6875 43.027344 22.515625 40.355469 22.515625 C 39.84375 22.515625 39.351562 22.597656 38.890625 22.746094 C 38.917969 22.519531 38.933594 22.296875 38.933594 22.0625 C 38.933594 19.140625 36.570312 16.765625 33.652344 16.765625 C 30.734375 16.765625 28.367188 19.140625 28.367188 22.0625 C 28.367188 22.234375 28.375 22.40625 28.394531 22.574219 C 28.0625 22.820312 27.765625 23.109375 27.507812 23.429688 C 26.902344 23.222656 26.253906 23.109375 25.578125 23.109375 C 22.273438 23.109375 19.59375 25.796875 19.59375 29.113281 C 19.59375 30.960938 20.425781 32.613281 21.734375 33.710938 C 18.511719 34.441406 14.746094 36.148438 13.335938 40.117188 C 13.335938 40.117188 15.976562 37.433594 20.167969 37.332031 C 24.359375 37.230469 26.355469 40.117188 31.164062 40.117188 C 32.933594 40.117188 34.550781 39.480469 35.808594 38.429688 C 37.054688 40.121094 39.0625 41.222656 41.324219 41.222656 C 41.921875 41.222656 42.503906 41.144531 43.058594 41 C 43.054688 41.074219 43.050781 41.148438 43.050781 41.222656 C 43.050781 45.328125 46.371094 48.65625 50.464844 48.65625 C 51.707031 48.65625 52.871094 48.351562 53.898438 47.8125 C 54.363281 47.566406 54.800781 47.277344 55.203125 46.941406 C 60.015625 44.027344 64.667969 44.5 67.449219 45.25 C 70.890625 46.179688 74.570312 45.847656 77.730469 44.203125 C 80.683594 42.664062 81.660156 40.859375 81.660156 40.859375 C 79.617188 41.820312 77.671875 42.253906 76.007812 42.414062 Z M 76.007812 42.414062 " fill-opacity="1" fill-rule="nonzero"/><path fill="#000000" d="M 19.527344 73.464844 C 16.972656 73.464844 14.890625 71.378906 14.890625 68.816406 C 14.890625 67.171875 15.75 65.667969 17.148438 64.828125 C 16.84375 64.117188 16.6875 63.355469 16.6875 62.566406 C 16.6875 59.386719 19.269531 56.800781 22.4375 56.800781 C 24.695312 56.800781 26.707031 58.09375 27.648438 60.128906 C 28.375 59.726562 29.1875 59.519531 30.023438 59.519531 C 32.75 59.519531 34.964844 61.738281 34.964844 64.472656 C 34.964844 65.804688 34.433594 67.066406 33.492188 67.996094 C 37.035156 70.078125 42.265625 67.457031 42.320312 67.429688 C 42.4375 67.371094 42.582031 67.394531 42.671875 67.492188 C 42.761719 67.585938 42.777344 67.734375 42.714844 67.847656 C 39.449219 73.488281 30.328125 70.816406 29.9375 70.699219 C 25.886719 69.636719 22.660156 72.242188 22.628906 72.269531 C 21.785156 73.035156 20.679688 73.464844 19.527344 73.464844 Z M 22.441406 57.398438 C 19.597656 57.398438 17.285156 59.71875 17.285156 62.566406 C 17.285156 63.355469 17.460938 64.117188 17.804688 64.824219 C 17.875 64.972656 17.816406 65.148438 17.671875 65.222656 C 16.328125 65.921875 15.492188 67.300781 15.492188 68.820312 C 15.492188 71.050781 17.300781 72.867188 19.527344 72.867188 C 20.535156 72.867188 21.496094 72.496094 22.242188 71.816406 C 22.390625 71.691406 25.75 68.984375 30.101562 70.125 C 30.199219 70.152344 38.132812 72.476562 41.59375 68.402344 C 39.753906 69.128906 35.753906 70.304688 32.835938 68.285156 C 32.757812 68.230469 32.710938 68.144531 32.707031 68.050781 C 32.703125 67.957031 32.742188 67.867188 32.8125 67.808594 C 33.800781 66.980469 34.367188 65.761719 34.367188 64.472656 C 34.367188 62.074219 32.417969 60.117188 30.023438 60.117188 C 29.1875 60.117188 28.371094 60.359375 27.671875 60.816406 C 27.597656 60.863281 27.503906 60.878906 27.417969 60.847656 C 27.335938 60.820312 27.265625 60.757812 27.234375 60.671875 C 26.449219 58.683594 24.570312 57.398438 22.441406 57.398438 Z M 50.46875 48.957031 C 46.265625 48.957031 42.839844 45.570312 42.753906 41.375 C 42.285156 41.472656 41.804688 41.519531 41.324219 41.519531 C 39.167969 41.519531 37.109375 40.527344 35.757812 38.851562 C 34.445312 39.863281 32.828125 40.417969 31.164062 40.417969 C 28.648438 40.417969 26.902344 39.652344 25.214844 38.914062 C 23.644531 38.230469 22.164062 37.585938 20.175781 37.628906 C 16.160156 37.726562 13.574219 40.300781 13.546875 40.328125 C 13.449219 40.425781 13.292969 40.445312 13.175781 40.367188 C 13.058594 40.292969 13.007812 40.148438 13.054688 40.015625 C 14.453125 36.082031 18.101562 34.332031 21.117188 33.554688 C 19.949219 32.375 19.292969 30.789062 19.292969 29.113281 C 19.292969 25.636719 22.109375 22.8125 25.574219 22.8125 C 26.199219 22.8125 26.8125 22.902344 27.40625 23.085938 C 27.613281 22.847656 27.835938 22.632812 28.082031 22.4375 C 28.074219 22.3125 28.070312 22.1875 28.070312 22.0625 C 28.070312 18.976562 30.574219 16.46875 33.648438 16.46875 C 36.726562 16.46875 39.230469 18.976562 39.230469 22.0625 C 39.230469 22.15625 39.230469 22.25 39.222656 22.34375 C 39.59375 22.261719 39.972656 22.21875 40.355469 22.21875 C 43.042969 22.21875 45.257812 24.304688 45.46875 26.945312 C 46.558594 26.085938 47.894531 25.621094 49.296875 25.621094 C 52.195312 25.621094 54.691406 27.625 55.339844 30.429688 C 55.851562 30.324219 56.375 30.269531 56.894531 30.269531 C 61.148438 30.269531 64.605469 33.742188 64.605469 38.003906 C 64.605469 38.683594 64.519531 39.351562 64.347656 40.003906 C 66.039062 40.117188 67.75 40.507812 69.4375 41.160156 C 71.628906 42.003906 73.824219 42.328125 75.972656 42.117188 C 77.894531 41.929688 79.761719 41.417969 81.53125 40.59375 C 81.648438 40.539062 81.785156 40.566406 81.875 40.660156 C 81.964844 40.753906 81.980469 40.894531 81.921875 41.007812 C 81.878906 41.085938 80.863281 42.910156 77.867188 44.46875 C 74.679688 46.128906 70.953125 46.507812 67.371094 45.539062 C 64.449219 44.75 59.996094 44.394531 55.371094 47.183594 C 54.960938 47.523438 54.511719 47.824219 54.035156 48.074219 C 52.941406 48.652344 51.707031 48.957031 50.46875 48.957031 Z M 43.058594 40.699219 C 43.125 40.699219 43.191406 40.722656 43.242188 40.765625 C 43.316406 40.824219 43.359375 40.914062 43.355469 41.007812 L 43.351562 41.070312 C 43.351562 41.121094 43.347656 41.171875 43.347656 41.222656 C 43.347656 45.15625 46.539062 48.359375 50.464844 48.359375 C 51.625 48.359375 52.730469 48.085938 53.757812 47.546875 C 54.207031 47.308594 54.625 47.03125 55.011719 46.710938 C 55.023438 46.703125 55.035156 46.695312 55.046875 46.6875 C 59.855469 43.773438 64.488281 44.140625 67.527344 44.960938 C 70.964844 45.890625 74.542969 45.527344 77.59375 43.9375 C 79.160156 43.121094 80.160156 42.222656 80.738281 41.582031 C 79.222656 42.175781 77.644531 42.554688 76.03125 42.710938 C 73.792969 42.929688 71.5 42.597656 69.222656 41.71875 C 67.46875 41.039062 65.691406 40.65625 63.941406 40.578125 C 63.847656 40.574219 63.761719 40.527344 63.710938 40.453125 C 63.65625 40.375 63.640625 40.277344 63.671875 40.1875 C 63.894531 39.480469 64.011719 38.746094 64.011719 38.003906 C 64.011719 34.070312 60.820312 30.871094 56.894531 30.871094 C 56.316406 30.871094 55.742188 30.941406 55.179688 31.078125 C 55.101562 31.097656 55.015625 31.085938 54.945312 31.039062 C 54.878906 30.992188 54.828125 30.925781 54.816406 30.84375 C 54.332031 28.164062 52.011719 26.21875 49.292969 26.21875 C 47.828125 26.21875 46.441406 26.785156 45.386719 27.808594 C 45.300781 27.894531 45.167969 27.917969 45.058594 27.867188 C 44.945312 27.816406 44.875 27.703125 44.882812 27.578125 C 44.886719 27.507812 44.886719 27.4375 44.886719 27.363281 C 44.886719 24.855469 42.855469 22.816406 40.355469 22.816406 C 39.882812 22.816406 39.421875 22.886719 38.976562 23.027344 C 38.878906 23.058594 38.773438 23.039062 38.695312 22.972656 C 38.617188 22.90625 38.578125 22.804688 38.589844 22.703125 C 38.617188 22.484375 38.628906 22.269531 38.628906 22.0625 C 38.636719 19.308594 36.398438 17.066406 33.648438 17.066406 C 30.902344 17.066406 28.664062 19.308594 28.664062 22.0625 C 28.664062 22.21875 28.671875 22.382812 28.6875 22.546875 C 28.699219 22.652344 28.652344 22.753906 28.570312 22.816406 C 28.261719 23.046875 27.984375 23.316406 27.742188 23.617188 C 27.664062 23.71875 27.53125 23.757812 27.410156 23.714844 C 26.820312 23.511719 26.203125 23.410156 25.574219 23.410156 C 22.441406 23.410156 19.886719 25.96875 19.886719 29.113281 C 19.886719 30.804688 20.628906 32.398438 21.925781 33.484375 C 22.011719 33.558594 22.050781 33.671875 22.023438 33.785156 C 21.996094 33.894531 21.90625 33.980469 21.796875 34.003906 C 19.136719 34.609375 15.785156 35.976562 14.113281 39.085938 C 15.269531 38.257812 17.371094 37.101562 20.15625 37.03125 C 22.269531 36.980469 23.816406 37.65625 25.449219 38.367188 C 27.082031 39.078125 28.769531 39.816406 31.160156 39.816406 C 32.785156 39.816406 34.367188 39.242188 35.613281 38.199219 C 35.675781 38.144531 35.757812 38.121094 35.839844 38.132812 C 35.921875 38.140625 35.992188 38.183594 36.042969 38.25 C 37.277344 39.921875 39.25 40.921875 41.320312 40.921875 C 41.882812 40.921875 42.4375 40.851562 42.976562 40.710938 C 43.007812 40.703125 43.035156 40.699219 43.058594 40.699219 Z M 76.007812 42.414062 Z M 76.007812 42.414062 " fill-opacity="1" fill-rule="nonzero"/></g><path fill="#000000" d="M 95.691406 59.730469 C 93.949219 65.347656 90.394531 70.390625 85.671875 73.929688 C 80.792969 77.59375 74.980469 79.527344 68.867188 79.527344 C 53.378906 79.527344 40.777344 66.894531 40.777344 51.359375 C 40.777344 37.011719 51.488281 24.980469 65.6875 23.375 C 65.824219 23.359375 65.953125 23.441406 66 23.570312 C 66.046875 23.699219 66 23.847656 65.882812 23.921875 C 59.40625 28.234375 55.542969 35.457031 55.542969 43.242188 C 55.542969 56.023438 65.910156 66.421875 78.65625 66.421875 C 84.929688 66.421875 90.804688 63.941406 95.191406 59.433594 C 95.289062 59.335938 95.441406 59.316406 95.558594 59.386719 C 95.679688 59.457031 95.734375 59.597656 95.691406 59.730469 Z M 95.691406 59.730469 " fill-opacity="1" fill-rule="nonzero"/><g clip-path="url(#b29bf35257)"><path fill="#ffffff" d="M 106.355469 97.855469 C 106.355469 97.855469 105.824219 99.476562 103.808594 99.503906 C 103.203125 99.511719 102.617188 99.296875 102.117188 98.953125 C 101.164062 98.289062 98.878906 97.246094 95.832031 99.503906 C 95.832031 99.503906 91.257812 102.949219 87.363281 99.503906 C 86.8125 99.011719 86.109375 98.570312 85.304688 98.171875 C 84.601562 99.625 82.949219 100.640625 81.03125 100.640625 C 78.46875 100.640625 76.390625 98.832031 76.390625 96.597656 C 76.390625 96.414062 76.40625 96.234375 76.433594 96.058594 C 73.382812 95.890625 70.648438 96.296875 69.5 97.40625 C 68.746094 98.300781 67.625 98.871094 66.367188 98.871094 C 66.070312 98.871094 65.78125 98.835938 65.507812 98.777344 C 64.265625 101.375 61.621094 103.164062 58.558594 103.164062 C 55.394531 103.164062 52.675781 101.25 51.492188 98.507812 C 50.613281 98.96875 49.613281 99.234375 48.550781 99.234375 C 45.730469 99.234375 43.339844 97.386719 42.511719 94.832031 C 41.71875 95.222656 40.828125 95.445312 39.882812 95.445312 C 36.589844 95.445312 33.921875 92.769531 33.921875 89.46875 C 33.921875 89.425781 33.921875 89.386719 33.925781 89.347656 C 33.253906 89.621094 32.523438 89.773438 31.753906 89.773438 C 28.570312 89.773438 25.988281 87.183594 25.988281 83.988281 C 25.988281 83.621094 26.019531 83.261719 26.085938 82.914062 C 16.183594 83.328125 13.394531 77.003906 13.394531 77.003906 C 18.558594 80.925781 24.5625 79.695312 28.425781 78.160156 C 28.855469 74.992188 31.5625 72.550781 34.832031 72.550781 C 37.089844 72.550781 39.074219 73.710938 40.234375 75.46875 C 40.871094 74.027344 42.308594 73.019531 43.980469 73.019531 C 44.835938 73.019531 45.632812 73.285156 46.292969 73.738281 C 47.214844 71.363281 49.515625 69.683594 52.207031 69.683594 C 55.097656 69.683594 57.53125 71.617188 58.304688 74.261719 C 58.957031 74.011719 59.664062 73.878906 60.40625 73.878906 C 63.445312 73.878906 65.953125 76.160156 66.320312 79.109375 C 66.597656 79.0625 66.886719 79.039062 67.179688 79.039062 C 70.136719 79.039062 72.53125 81.441406 72.53125 84.40625 C 72.53125 84.824219 72.484375 85.234375 72.390625 85.628906 C 74.132812 85.863281 75.589844 86.984375 76.304688 88.527344 C 78.878906 88.597656 84.984375 89.449219 88.324219 95.574219 C 89.679688 98.0625 92.980469 98.742188 95.160156 96.9375 C 95.226562 96.882812 95.292969 96.828125 95.359375 96.765625 C 98.167969 94.277344 101.929688 95.410156 103.136719 97.398438 C 103.800781 98.496094 105.3125 98.71875 106.304688 97.898438 C 106.320312 97.886719 106.339844 97.871094 106.355469 97.855469 Z M 106.355469 97.855469 " fill-opacity="1" fill-rule="nonzero"/></g><g clip-path="url(#706c4ed4d1)"><path fill="#000000" d="M 106.523438 97.609375 C 106.414062 97.53125 106.265625 97.539062 106.164062 97.625 L 106.109375 97.671875 C 105.695312 98.015625 105.148438 98.164062 104.617188 98.070312 C 104.101562 97.984375 103.652344 97.683594 103.386719 97.246094 C 102.726562 96.15625 101.386719 95.335938 99.886719 95.109375 C 98.175781 94.851562 96.496094 95.359375 95.160156 96.546875 C 95.097656 96.605469 95.03125 96.660156 94.96875 96.710938 C 94.011719 97.503906 92.757812 97.820312 91.527344 97.585938 C 90.265625 97.339844 89.195312 96.558594 88.585938 95.4375 C 85.238281 89.292969 79.148438 88.34375 76.492188 88.234375 C 75.742188 86.742188 74.367188 85.699219 72.746094 85.386719 C 72.800781 85.0625 72.828125 84.734375 72.828125 84.410156 C 72.828125 81.285156 70.292969 78.742188 67.179688 78.742188 C 66.980469 78.742188 66.773438 78.757812 66.570312 78.777344 C 66.054688 75.792969 63.457031 73.582031 60.40625 73.582031 C 59.753906 73.582031 59.113281 73.683594 58.496094 73.882812 C 57.582031 71.21875 55.039062 69.386719 52.210938 69.386719 C 49.570312 69.386719 47.230469 70.910156 46.152344 73.304688 C 45.492188 72.925781 44.75 72.726562 43.980469 72.726562 C 42.414062 72.726562 40.976562 73.566406 40.195312 74.902344 C 38.914062 73.238281 36.945312 72.257812 34.835938 72.257812 C 31.523438 72.257812 28.683594 74.691406 28.15625 77.949219 C 24.1875 79.496094 18.488281 80.503906 13.578125 76.769531 C 13.46875 76.6875 13.316406 76.6875 13.210938 76.773438 C 13.101562 76.855469 13.066406 77.003906 13.125 77.128906 C 13.152344 77.191406 15.925781 83.238281 25.179688 83.238281 C 25.363281 83.238281 25.546875 83.234375 25.738281 83.230469 C 25.703125 83.484375 25.6875 83.738281 25.6875 83.992188 C 25.6875 87.347656 28.410156 90.074219 31.753906 90.074219 C 32.394531 90.074219 33.023438 89.976562 33.628906 89.777344 C 33.789062 93.097656 36.53125 95.75 39.882812 95.75 C 40.738281 95.75 41.5625 95.578125 42.339844 95.246094 C 43.316406 97.824219 45.773438 99.535156 48.550781 99.535156 C 49.515625 99.535156 50.476562 99.324219 51.347656 98.917969 C 52.675781 101.691406 55.472656 103.46875 58.558594 103.46875 C 61.542969 103.46875 64.3125 101.769531 65.671875 99.117188 C 67.207031 99.363281 68.726562 98.785156 69.714844 97.621094 C 70.691406 96.6875 73.0625 96.21875 76.105469 96.347656 C 76.097656 96.433594 76.09375 96.519531 76.09375 96.601562 C 76.09375 98.996094 78.308594 100.945312 81.03125 100.945312 C 82.902344 100.945312 84.59375 100.023438 85.433594 98.578125 C 86.125 98.9375 86.710938 99.324219 87.167969 99.730469 C 91.199219 103.296875 95.964844 99.78125 96.011719 99.746094 C 98.84375 97.652344 100.949219 98.503906 101.953125 99.199219 C 102.519531 99.597656 103.152344 99.804688 103.78125 99.804688 C 103.792969 99.804688 103.804688 99.804688 103.816406 99.804688 C 106.019531 99.777344 106.636719 97.972656 106.644531 97.953125 C 106.683594 97.820312 106.636719 97.683594 106.523438 97.609375 Z M 58.621094 74.464844 C 59.195312 74.273438 59.792969 74.175781 60.40625 74.175781 C 63.257812 74.175781 65.667969 76.3125 66.023438 79.148438 C 66.03125 79.226562 66.074219 79.300781 66.140625 79.347656 C 66.203125 79.398438 66.285156 79.417969 66.367188 79.40625 C 66.636719 79.359375 66.910156 79.339844 67.179688 79.339844 C 69.964844 79.339844 72.230469 81.613281 72.230469 84.40625 C 72.230469 84.640625 72.210938 84.875 72.179688 85.113281 C 71.9375 84.957031 71.597656 84.761719 71.179688 84.59375 C 68.1875 82.21875 65.652344 82.722656 64.226562 83.386719 C 64.582031 82.613281 64.738281 81.722656 64.660156 80.796875 C 64.539062 79.316406 63.820312 77.992188 62.695312 77.167969 C 60.96875 75.902344 59.308594 75.96875 58.507812 76.113281 C 58.648438 75.417969 58.640625 74.796875 58.621094 74.464844 Z M 31.753906 89.472656 C 29.078125 89.472656 26.847656 87.535156 26.378906 84.984375 C 26.785156 85.609375 27.382812 86.171875 28.117188 86.578125 C 29.757812 87.492188 31.554688 87.414062 32.933594 86.367188 C 34.113281 85.46875 35.632812 85.5 36.742188 85.703125 C 34.25 86.285156 33.742188 88.457031 33.644531 89.132812 C 33.042969 89.359375 32.40625 89.472656 31.753906 89.472656 Z M 69.273438 97.210938 C 69.273438 97.210938 69.273438 97.210938 69.269531 97.214844 C 68.378906 98.277344 66.964844 98.785156 65.570312 98.484375 C 65.433594 98.457031 65.296875 98.523438 65.238281 98.648438 C 64.015625 101.210938 61.390625 102.867188 58.558594 102.867188 C 55.992188 102.867188 53.640625 101.539062 52.300781 99.402344 C 53.164062 99.933594 54.015625 100.355469 54.839844 100.652344 C 54.875 100.664062 54.910156 100.671875 54.941406 100.671875 C 55.0625 100.671875 55.179688 100.597656 55.222656 100.472656 C 55.277344 100.320312 55.199219 100.148438 55.042969 100.089844 C 54.261719 99.808594 53.453125 99.410156 52.628906 98.902344 C 52.648438 98.902344 52.664062 98.90625 52.679688 98.90625 C 54.980469 98.90625 57.125 97.867188 58.472656 96.039062 C 60.039062 93.914062 60.203125 91.1875 58.914062 88.558594 C 56.746094 84.132812 52.503906 84.8125 50.515625 85.433594 C 51.222656 84.761719 52.5 83.921875 54.5 83.878906 C 57.796875 83.800781 59.242188 85.851562 59.300781 85.941406 C 59.394531 86.074219 59.578125 86.109375 59.714844 86.015625 C 59.847656 85.921875 59.886719 85.738281 59.792969 85.601562 C 59.722656 85.503906 58.117188 83.207031 54.488281 83.28125 C 51.6875 83.34375 50.164062 84.835938 49.585938 85.566406 C 49.222656 85.050781 48.457031 84.21875 47.21875 84.117188 C 45.414062 83.964844 44.71875 85.3125 44.691406 85.367188 C 44.617188 85.515625 44.675781 85.691406 44.824219 85.765625 C 44.972656 85.839844 45.152344 85.78125 45.222656 85.636719 C 45.246094 85.59375 45.777344 84.597656 47.167969 84.710938 C 48.597656 84.832031 49.289062 86.230469 49.296875 86.242188 C 49.3125 86.273438 49.335938 86.304688 49.363281 86.332031 C 49.367188 86.335938 49.367188 86.335938 49.367188 86.335938 C 49.382812 86.347656 49.398438 86.359375 49.414062 86.371094 C 49.425781 86.375 49.4375 86.378906 49.449219 86.386719 C 49.453125 86.386719 49.457031 86.394531 49.464844 86.394531 C 49.472656 86.398438 49.476562 86.398438 49.480469 86.402344 C 49.484375 86.402344 49.492188 86.402344 49.496094 86.40625 C 49.515625 86.410156 49.535156 86.414062 49.554688 86.414062 C 49.558594 86.414062 49.558594 86.414062 49.5625 86.414062 C 49.5625 86.414062 49.5625 86.414062 49.566406 86.414062 C 49.609375 86.414062 49.652344 86.402344 49.695312 86.382812 C 49.941406 86.261719 55.757812 83.484375 58.371094 88.828125 C 59.558594 91.25 59.417969 93.75 57.988281 95.6875 C 56.53125 97.660156 54.058594 98.628906 51.535156 98.222656 C 48.949219 97.800781 48.117188 96.015625 48.1875 94.613281 C 48.265625 93.050781 49.4375 91.304688 51.816406 91.167969 C 53.066406 91.097656 53.960938 91.371094 54.273438 91.925781 C 54.472656 92.285156 54.410156 92.753906 54.113281 93.1875 C 53.710938 93.769531 52.765625 94.378906 51.4375 94.171875 C 51.273438 94.148438 51.121094 94.257812 51.097656 94.421875 C 51.074219 94.585938 51.183594 94.738281 51.34375 94.761719 C 52.945312 95.011719 54.101562 94.253906 54.601562 93.53125 C 55.035156 92.90625 55.105469 92.195312 54.792969 91.636719 C 54.539062 91.1875 53.816406 90.449219 51.777344 90.570312 C 49.15625 90.722656 47.6875 92.703125 47.589844 94.582031 C 47.515625 96.054688 48.269531 97.878906 50.542969 98.601562 C 49.90625 98.824219 49.234375 98.941406 48.546875 98.941406 C 45.976562 98.941406 43.714844 97.332031 42.851562 94.921875 C 43.25 94.523438 44.289062 93.34375 44.191406 91.988281 C 44.128906 91.121094 43.617188 90.359375 42.667969 89.734375 C 40.820312 88.511719 39.390625 88.921875 38.671875 89.714844 C 37.925781 90.535156 37.878906 91.746094 38.558594 92.601562 C 38.664062 92.730469 38.847656 92.75 38.980469 92.648438 C 39.109375 92.542969 39.128906 92.355469 39.023438 92.226562 C 38.527344 91.605469 38.566406 90.71875 39.113281 90.121094 C 39.664062 89.511719 40.804688 89.222656 42.339844 90.234375 C 43.125 90.753906 43.550781 91.355469 43.597656 92.03125 C 43.6875 93.257812 42.53125 94.402344 42.335938 94.585938 C 41.566406 94.960938 40.738281 95.15625 39.875 95.15625 C 36.753906 95.15625 34.210938 92.605469 34.210938 89.476562 C 34.210938 89.457031 34.210938 89.433594 34.214844 89.414062 L 34.214844 89.371094 C 34.222656 89.230469 34.429688 86.007812 38.367188 86.175781 C 38.511719 86.179688 38.636719 86.082031 38.667969 85.945312 C 38.699219 85.804688 38.628906 85.660156 38.496094 85.601562 C 38.355469 85.539062 34.960938 84.082031 32.5625 85.902344 C 31.382812 86.800781 29.824219 86.859375 28.398438 86.066406 C 27.085938 85.335938 26.273438 84.082031 26.378906 82.953125 C 26.378906 82.945312 26.378906 82.9375 26.378906 82.929688 C 26.378906 82.921875 26.378906 82.914062 26.378906 82.90625 C 26.378906 82.890625 26.375 82.875 26.371094 82.863281 C 26.371094 82.855469 26.371094 82.851562 26.367188 82.84375 C 26.363281 82.828125 26.355469 82.8125 26.347656 82.796875 C 26.347656 82.792969 26.34375 82.789062 26.34375 82.785156 C 26.332031 82.765625 26.320312 82.75 26.308594 82.734375 C 26.308594 82.734375 26.308594 82.730469 26.304688 82.730469 C 26.300781 82.726562 26.296875 82.726562 26.292969 82.722656 C 26.285156 82.710938 26.273438 82.699219 26.261719 82.691406 C 26.253906 82.683594 26.246094 82.679688 26.238281 82.675781 C 26.226562 82.667969 26.21875 82.664062 26.210938 82.660156 C 26.199219 82.65625 26.191406 82.652344 26.179688 82.648438 C 26.171875 82.644531 26.164062 82.640625 26.152344 82.640625 C 26.140625 82.636719 26.128906 82.636719 26.121094 82.632812 C 26.117188 82.632812 26.113281 82.632812 26.105469 82.632812 C 26.097656 82.632812 26.09375 82.632812 26.085938 82.632812 C 26.078125 82.632812 26.074219 82.628906 26.066406 82.628906 C 19.179688 82.90625 15.792969 79.824219 14.429688 78.0625 C 19.160156 80.914062 24.363281 80.015625 28.136719 78.59375 C 28.175781 79.003906 28.3125 79.613281 28.765625 80.109375 C 29.246094 80.636719 29.957031 80.902344 30.878906 80.902344 C 30.898438 80.902344 30.921875 80.902344 30.945312 80.902344 C 32.410156 80.882812 33.8125 80.183594 34.429688 79.164062 C 34.832031 78.5 34.867188 77.757812 34.527344 77.070312 C 34.246094 76.507812 33.863281 76.183594 33.386719 76.097656 C 32.523438 75.9375 31.71875 76.683594 31.683594 76.714844 C 31.566406 76.828125 31.558594 77.015625 31.671875 77.136719 C 31.78125 77.257812 31.96875 77.265625 32.09375 77.152344 C 32.261719 76.992188 32.8125 76.597656 33.285156 76.683594 C 33.5625 76.738281 33.800781 76.957031 33.992188 77.339844 C 34.304688 77.972656 34.128906 78.511719 33.921875 78.851562 C 33.40625 79.703125 32.207031 80.285156 30.9375 80.300781 C 30.164062 80.308594 29.582031 80.113281 29.207031 79.707031 C 28.660156 79.113281 28.71875 78.246094 28.722656 78.191406 C 29.140625 75.144531 31.761719 72.847656 34.832031 72.847656 C 36.863281 72.847656 38.746094 73.84375 39.902344 75.511719 C 39.734375 76.027344 39.273438 77.703125 39.996094 78.667969 C 40.519531 79.367188 41.445312 79.800781 42.34375 79.800781 C 42.484375 79.800781 42.621094 79.792969 42.757812 79.769531 C 43.699219 79.625 44.414062 78.984375 44.769531 77.964844 C 45.238281 76.625 44.609375 75.867188 43.921875 75.625 C 43.09375 75.328125 41.96875 75.691406 41.613281 76.695312 C 41.558594 76.851562 41.640625 77.023438 41.796875 77.078125 C 41.953125 77.132812 42.121094 77.054688 42.179688 76.898438 C 42.414062 76.230469 43.167969 75.992188 43.726562 76.191406 C 44.304688 76.394531 44.480469 76.984375 44.207031 77.769531 C 43.847656 78.792969 43.171875 79.101562 42.667969 79.179688 C 41.867188 79.304688 40.945312 78.9375 40.476562 78.308594 C 39.941406 77.597656 40.316406 76.109375 40.511719 75.582031 C 41.125 74.207031 42.484375 73.320312 43.984375 73.320312 C 44.75 73.320312 45.492188 73.550781 46.125 73.988281 C 46.203125 74.039062 46.296875 74.054688 46.382812 74.027344 C 46.46875 74 46.539062 73.933594 46.574219 73.847656 C 47.488281 71.5 49.699219 69.980469 52.210938 69.980469 C 54.878906 69.980469 57.257812 71.769531 58.015625 74.328125 C 58.035156 74.5 58.125 75.421875 57.859375 76.371094 C 57.835938 76.410156 57.824219 76.453125 57.820312 76.492188 C 57.546875 77.359375 56.964844 78.226562 55.746094 78.546875 C 54.171875 78.960938 53.121094 78.179688 52.695312 77.390625 C 52.253906 76.558594 52.398438 75.632812 53.074219 75.035156 C 53.617188 74.550781 54.136719 74.328125 54.613281 74.378906 C 55.1875 74.4375 55.527344 74.886719 55.53125 74.886719 C 55.628906 75.019531 55.8125 75.046875 55.949219 74.953125 C 56.082031 74.855469 56.109375 74.667969 56.011719 74.535156 C 55.992188 74.507812 55.523438 73.875 54.6875 73.785156 C 54.035156 73.710938 53.359375 73.984375 52.679688 74.589844 C 51.792969 75.378906 51.59375 76.589844 52.171875 77.671875 C 52.628906 78.53125 53.613281 79.257812 54.917969 79.257812 C 55.226562 79.257812 55.554688 79.21875 55.898438 79.128906 C 57.320312 78.753906 58.011719 77.757812 58.34375 76.761719 C 58.820312 76.640625 60.546875 76.332031 62.351562 77.65625 C 63.335938 78.375 63.964844 79.539062 64.070312 80.847656 C 64.179688 82.125 63.765625 83.375 62.972656 84.191406 C 62.859375 84.308594 62.859375 84.496094 62.972656 84.609375 C 63.085938 84.726562 63.273438 84.730469 63.390625 84.617188 C 63.417969 84.59375 65.960938 82.273438 69.542969 84.21875 C 68.640625 84.164062 67.605469 84.355469 66.527344 85.058594 C 64.90625 86.117188 63.960938 87.847656 64.066406 89.578125 C 64.164062 91.132812 65.070312 92.441406 66.5625 93.171875 C 67.128906 93.449219 67.640625 93.550781 68.085938 93.550781 C 68.816406 93.550781 69.367188 93.273438 69.691406 93.046875 C 69.78125 92.984375 69.863281 92.914062 69.945312 92.839844 C 70.238281 93.640625 70.703125 95.539062 69.273438 97.210938 Z M 67.054688 90.902344 C 67.21875 90.925781 67.367188 90.808594 67.390625 90.644531 C 67.390625 90.636719 67.5 89.878906 68.042969 89.570312 C 68.402344 89.367188 68.902344 89.394531 69.519531 89.660156 C 70.09375 89.90625 70.257812 90.347656 70.289062 90.679688 C 70.359375 91.34375 69.96875 92.109375 69.34375 92.550781 C 68.632812 93.050781 67.738281 93.078125 66.820312 92.628906 C 65.527344 91.996094 64.742188 90.871094 64.660156 89.539062 C 64.570312 88.023438 65.40625 86.5 66.851562 85.558594 C 68.421875 84.53125 69.875 84.71875 70.867188 85.097656 C 70.890625 85.113281 70.917969 85.121094 70.941406 85.128906 C 71.683594 85.425781 72.152344 85.820312 72.195312 85.855469 C 72.203125 85.863281 72.210938 85.867188 72.214844 85.871094 C 72.222656 85.878906 72.230469 85.882812 72.238281 85.886719 C 72.246094 85.894531 72.261719 85.898438 72.273438 85.902344 C 72.28125 85.90625 72.285156 85.910156 72.292969 85.914062 C 72.308594 85.917969 72.320312 85.921875 72.332031 85.921875 C 72.339844 85.925781 72.34375 85.925781 72.347656 85.925781 C 73.964844 86.144531 75.339844 87.164062 76.027344 88.65625 C 76.078125 88.757812 76.179688 88.824219 76.292969 88.828125 C 78.738281 88.898438 84.78125 89.707031 88.058594 95.722656 C 88.757812 97.003906 89.980469 97.894531 91.414062 98.171875 C 91.585938 98.207031 91.761719 98.230469 91.933594 98.246094 C 90.746094 98.390625 89.621094 98.085938 88.730469 97.6875 C 87.582031 97.179688 86.589844 96.289062 85.847656 95.117188 C 83.550781 91.464844 79.6875 91.34375 77.585938 91.59375 C 76.648438 91.707031 75.703125 92.015625 74.773438 92.519531 C 72.777344 93.597656 71.050781 92.652344 70.449219 92.246094 C 70.773438 91.746094 70.9375 91.164062 70.882812 90.617188 C 70.808594 89.925781 70.40625 89.390625 69.75 89.109375 C 68.949219 88.765625 68.273438 88.746094 67.742188 89.054688 C 66.941406 89.511719 66.804688 90.527344 66.796875 90.570312 C 66.777344 90.730469 66.894531 90.878906 67.054688 90.902344 Z M 103.808594 99.203125 C 103.292969 99.210938 102.769531 99.039062 102.292969 98.703125 C 101.378906 98.070312 98.90625 96.859375 95.65625 99.261719 C 95.476562 99.398438 91.230469 102.519531 87.566406 99.277344 C 87.054688 98.828125 86.410156 98.402344 85.648438 98.011719 C 85.710938 97.628906 85.75 96.875 85.277344 96.191406 C 84.753906 95.425781 83.769531 94.992188 82.351562 94.898438 C 80.519531 94.777344 79.796875 95.574219 79.730469 96.355469 C 79.65625 97.242188 80.363281 98.097656 81.242188 98.1875 C 81.40625 98.207031 81.550781 98.085938 81.570312 97.921875 C 81.585938 97.757812 81.46875 97.609375 81.304688 97.59375 C 80.703125 97.53125 80.285156 96.902344 80.328125 96.40625 C 80.378906 95.757812 81.121094 95.417969 82.3125 95.496094 C 83.535156 95.574219 84.367188 95.921875 84.785156 96.523438 C 85.230469 97.164062 85.066406 97.929688 85.03125 98.0625 C 84.347656 99.449219 82.78125 100.34375 81.035156 100.34375 C 78.640625 100.34375 76.691406 98.664062 76.691406 96.597656 C 76.691406 96.4375 76.707031 96.273438 76.734375 96.105469 C 76.746094 96.019531 76.722656 95.9375 76.667969 95.871094 C 76.617188 95.804688 76.539062 95.765625 76.453125 95.761719 C 73.921875 95.621094 71.832031 95.871094 70.453125 96.464844 C 71.042969 95.148438 70.863281 93.851562 70.628906 93.03125 C 71.5625 93.515625 73.230469 94.035156 75.0625 93.046875 C 75.925781 92.582031 76.800781 92.289062 77.664062 92.1875 C 80.054688 91.902344 83.332031 92.234375 85.347656 95.4375 C 86.152344 96.707031 87.238281 97.679688 88.492188 98.234375 C 89.304688 98.597656 90.289062 98.886719 91.34375 98.886719 C 92.632812 98.886719 94.03125 98.449219 95.359375 97.167969 C 95.425781 97.113281 95.492188 97.054688 95.558594 96.996094 C 96.761719 95.929688 98.269531 95.46875 99.800781 95.703125 C 101.128906 95.90625 102.308594 96.613281 102.878906 97.558594 C 103.238281 98.144531 103.832031 98.546875 104.519531 98.664062 C 104.828125 98.714844 105.140625 98.710938 105.4375 98.644531 C 105.085938 98.9375 104.5625 99.195312 103.808594 99.203125 Z M 32.949219 56.570312 C 32.949219 56.734375 32.816406 56.867188 32.652344 56.867188 C 32.484375 56.867188 32.351562 56.734375 32.351562 56.570312 L 32.351562 54.015625 L 31.796875 53.457031 L 29.25 53.457031 C 29.085938 53.457031 28.953125 53.324219 28.953125 53.160156 C 28.953125 52.992188 29.085938 52.859375 29.25 52.859375 L 31.796875 52.859375 L 32.351562 52.304688 L 32.351562 49.75 C 32.351562 49.582031 32.484375 49.449219 32.652344 49.449219 C 32.816406 49.449219 32.949219 49.582031 32.949219 49.75 L 32.949219 52.304688 L 33.503906 52.859375 L 36.050781 52.859375 C 36.214844 52.859375 36.351562 52.992188 36.351562 53.160156 C 36.351562 53.324219 36.214844 53.457031 36.050781 53.457031 L 33.503906 53.457031 L 32.949219 54.015625 Z M 32.671875 63.328125 C 32.65625 63.328125 32.636719 63.332031 32.621094 63.332031 C 32.476562 63.332031 32.351562 63.226562 32.328125 63.082031 C 32.257812 62.660156 32.164062 62.375 32.164062 62.375 C 32.113281 62.214844 32.195312 62.046875 32.351562 61.996094 C 32.511719 61.941406 32.675781 62.027344 32.730469 62.183594 C 32.734375 62.195312 32.839844 62.507812 32.917969 62.980469 C 32.945312 63.148438 32.835938 63.300781 32.671875 63.328125 Z M 40.09375 25.816406 C 40.011719 25.738281 39.933594 25.660156 39.847656 25.546875 C 39.980469 25.503906 40.109375 25.511719 40.230469 25.535156 C 40.355469 25.5625 40.46875 25.617188 40.570312 25.691406 C 40.671875 25.765625 40.757812 25.863281 40.824219 25.976562 C 40.886719 26.089844 40.921875 26.222656 40.898438 26.359375 C 40.769531 26.296875 40.683594 26.238281 40.589844 26.183594 C 40.5 26.128906 40.417969 26.070312 40.335938 26.011719 C 40.253906 25.953125 40.171875 25.890625 40.09375 25.816406 Z M 27.859375 68.851562 C 27.433594 68.839844 27.0625 68.773438 26.6875 68.710938 L 26.125 68.609375 C 25.933594 68.574219 25.746094 68.546875 25.535156 68.496094 C 25.714844 68.382812 25.921875 68.320312 26.128906 68.296875 C 26.335938 68.273438 26.546875 68.28125 26.75 68.316406 C 26.953125 68.355469 27.152344 68.414062 27.339844 68.5 C 27.53125 68.585938 27.707031 68.695312 27.859375 68.851562 Z M 28.355469 64.003906 C 28.222656 64.148438 28.042969 64.242188 27.859375 64.261719 C 27.957031 64.097656 28.042969 63.96875 28.097656 63.828125 C 28.15625 63.6875 28.199219 63.550781 28.234375 63.402344 C 28.304688 63.109375 28.335938 62.796875 28.417969 62.433594 C 28.539062 62.582031 28.601562 62.757812 28.632812 62.9375 C 28.664062 63.121094 28.664062 63.308594 28.621094 63.496094 C 28.578125 63.679688 28.488281 63.859375 28.355469 64.003906 Z M 23.660156 61.140625 C 23.347656 60.957031 23.019531 60.847656 22.691406 60.777344 C 22.363281 60.710938 22.03125 60.699219 21.695312 60.714844 L 21.445312 60.734375 L 21.195312 60.769531 C 21.023438 60.785156 20.863281 60.84375 20.691406 60.867188 C 20.523438 60.910156 20.355469 60.957031 20.183594 60.996094 C 20.015625 61.046875 19.84375 61.101562 19.664062 61.136719 C 19.804688 61.023438 19.953125 60.921875 20.105469 60.816406 C 20.265625 60.730469 20.425781 60.640625 20.59375 60.570312 C 20.9375 60.441406 21.296875 60.328125 21.671875 60.3125 C 22.046875 60.292969 22.429688 60.339844 22.78125 60.476562 C 23.128906 60.617188 23.457031 60.832031 23.660156 61.140625 Z M 27.65625 65.453125 C 27.785156 65.359375 27.917969 65.300781 28.039062 65.214844 C 28.15625 65.128906 28.28125 65.054688 28.378906 64.957031 C 28.488281 64.867188 28.574219 64.761719 28.664062 64.664062 C 28.738281 64.550781 28.824219 64.445312 28.878906 64.320312 C 29 64.082031 29.089844 63.816406 29.144531 63.539062 C 29.199219 63.257812 29.230469 62.964844 29.25 62.65625 C 29.390625 62.933594 29.453125 63.25 29.453125 63.566406 C 29.453125 63.882812 29.386719 64.214844 29.230469 64.507812 C 29.160156 64.65625 29.054688 64.785156 28.945312 64.910156 C 28.820312 65.019531 28.707031 65.140625 28.558594 65.210938 C 28.421875 65.304688 28.265625 65.347656 28.117188 65.398438 C 27.964844 65.433594 27.808594 65.445312 27.65625 65.453125 Z M 27.867188 66.542969 C 27.648438 66.59375 27.433594 66.644531 27.214844 66.679688 C 27.40625 66.558594 27.601562 66.460938 27.792969 66.363281 C 27.984375 66.261719 28.167969 66.144531 28.355469 66.042969 C 28.53125 65.921875 28.714844 65.8125 28.882812 65.6875 C 29.042969 65.554688 29.21875 65.4375 29.355469 65.28125 C 29.652344 65 29.894531 64.664062 30.042969 64.285156 C 30.191406 63.902344 30.25 63.476562 30.195312 63.035156 C 30.410156 63.425781 30.449219 63.921875 30.339844 64.375 C 30.316406 64.492188 30.269531 64.597656 30.230469 64.710938 C 30.1875 64.820312 30.125 64.917969 30.070312 65.023438 C 30.015625 65.128906 29.933594 65.214844 29.867188 65.308594 C 29.796875 65.40625 29.710938 65.484375 29.632812 65.566406 C 29.472656 65.734375 29.28125 65.863281 29.09375 65.996094 C 29 66.0625 28.898438 66.109375 28.800781 66.164062 C 28.699219 66.21875 28.601562 66.277344 28.496094 66.316406 C 28.289062 66.398438 28.082031 66.480469 27.867188 66.542969 Z M 23.332031 69.9375 C 22.921875 70.09375 22.539062 70.316406 22.136719 70.53125 C 22.433594 70.191406 22.789062 69.878906 23.199219 69.660156 C 23.394531 69.53125 23.613281 69.457031 23.828125 69.359375 C 24.046875 69.285156 24.269531 69.207031 24.496094 69.160156 C 24.953125 69.066406 25.417969 69.023438 25.878906 69.054688 C 26.339844 69.085938 26.796875 69.175781 27.21875 69.359375 C 26.761719 69.335938 26.320312 69.335938 25.878906 69.367188 C 25.441406 69.394531 25.007812 69.453125 24.582031 69.550781 C 24.152344 69.636719 23.738281 69.769531 23.332031 69.9375 Z M 28.953125 67.5 C 28.9375 67.335938 29.058594 67.191406 29.226562 67.175781 C 31 67.023438 32.046875 66.234375 32.332031 64.816406 C 32.363281 64.65625 32.519531 64.550781 32.683594 64.582031 C 32.84375 64.613281 32.949219 64.773438 32.917969 64.9375 C 32.683594 66.109375 31.859375 67.554688 29.277344 67.773438 C 29.269531 67.773438 29.257812 67.773438 29.25 67.773438 C 29.09375 67.773438 28.964844 67.65625 28.953125 67.5 Z M 31.847656 20.65625 C 31.519531 20.699219 31.195312 20.773438 30.890625 20.9375 L 30.773438 20.992188 C 30.738281 21.011719 30.703125 21.039062 30.664062 21.0625 L 30.4375 21.195312 C 30.289062 21.292969 30.148438 21.40625 29.988281 21.503906 C 30.085938 21.347656 30.1875 21.191406 30.308594 21.046875 C 30.441406 20.917969 30.5625 20.765625 30.730469 20.667969 C 31.035156 20.4375 31.414062 20.300781 31.800781 20.257812 C 32.1875 20.210938 32.585938 20.277344 32.9375 20.421875 C 33.289062 20.5625 33.609375 20.773438 33.847656 21.0625 C 33.511719 20.910156 33.179688 20.792969 32.84375 20.714844 C 32.515625 20.640625 32.175781 20.617188 31.847656 20.65625 Z M 25.171875 30.03125 C 24.988281 29.96875 24.808594 29.875 24.675781 29.726562 C 25.066406 29.722656 25.394531 29.734375 25.730469 29.707031 C 25.894531 29.699219 26.0625 29.683594 26.230469 29.65625 C 26.402344 29.636719 26.574219 29.59375 26.773438 29.574219 C 26.546875 29.898438 26.152344 30.082031 25.753906 30.105469 C 25.558594 30.117188 25.359375 30.09375 25.171875 30.03125 Z M 26.414062 31.242188 C 26.835938 31.101562 27.246094 30.925781 27.65625 30.707031 C 27.347656 31.054688 26.953125 31.324219 26.53125 31.53125 C 26.105469 31.734375 25.640625 31.863281 25.160156 31.898438 C 24.921875 31.917969 24.683594 31.894531 24.441406 31.871094 C 24.210938 31.8125 23.96875 31.78125 23.753906 31.675781 C 23.304688 31.511719 22.925781 31.207031 22.605469 30.878906 C 23.027344 31.078125 23.421875 31.28125 23.851562 31.378906 C 24.0625 31.445312 24.277344 31.464844 24.488281 31.496094 C 24.597656 31.5 24.703125 31.507812 24.8125 31.511719 C 24.917969 31.523438 25.027344 31.503906 25.132812 31.5 C 25.566406 31.476562 25.996094 31.378906 26.414062 31.242188 Z M 26.386719 25.097656 C 26.53125 25.136719 26.671875 25.214844 26.78125 25.320312 C 26.894531 25.425781 26.964844 25.574219 26.976562 25.722656 C 26.828125 25.667969 26.722656 25.613281 26.609375 25.582031 C 26.5 25.542969 26.398438 25.515625 26.289062 25.488281 C 26.066406 25.429688 25.839844 25.386719 25.554688 25.28125 C 25.667969 25.171875 25.804688 25.121094 25.949219 25.089844 C 26.089844 25.058594 26.242188 25.0625 26.386719 25.097656 Z M 23.523438 30.234375 C 23.800781 30.410156 24.09375 30.507812 24.386719 30.566406 C 24.679688 30.625 24.976562 30.625 25.277344 30.601562 C 25.578125 30.585938 25.875 30.519531 26.183594 30.460938 C 26.332031 30.417969 26.488281 30.386719 26.640625 30.347656 C 26.796875 30.304688 26.949219 30.261719 27.117188 30.234375 C 26.988281 30.339844 26.855469 30.433594 26.71875 30.527344 C 26.578125 30.609375 26.429688 30.683594 26.28125 30.757812 C 25.972656 30.875 25.652344 30.980469 25.3125 31 C 24.972656 31.027344 24.621094 30.988281 24.300781 30.863281 C 23.980469 30.738281 23.683594 30.527344 23.523438 30.234375 Z M 30.730469 26.695312 C 30.910156 26.699219 31.089844 26.726562 31.265625 26.796875 C 31.4375 26.867188 31.609375 26.96875 31.734375 27.117188 C 31.859375 27.269531 31.941406 27.460938 31.921875 27.652344 C 31.78125 27.523438 31.664062 27.433594 31.53125 27.355469 C 31.402344 27.28125 31.261719 27.226562 31.121094 27.167969 C 30.835938 27.054688 30.527344 26.96875 30.195312 26.800781 C 30.367188 26.722656 30.546875 26.699219 30.730469 26.695312 Z M 20.871094 29.554688 C 21.066406 25.960938 23.789062 25.511719 23.820312 25.503906 C 23.980469 25.480469 24.132812 25.59375 24.160156 25.753906 C 24.183594 25.917969 24.070312 26.070312 23.910156 26.097656 C 23.816406 26.109375 21.636719 26.496094 21.46875 29.585938 C 21.402344 30.871094 21.96875 31.953125 23.027344 32.554688 C 24.515625 33.402344 26.601562 33.140625 28.472656 31.871094 C 28.492188 31.859375 28.511719 31.847656 28.535156 31.839844 C 28.539062 31.835938 28.546875 31.835938 28.550781 31.832031 C 28.566406 31.828125 28.585938 31.824219 28.601562 31.820312 C 28.609375 31.820312 28.617188 31.820312 28.621094 31.820312 C 28.640625 31.816406 28.660156 31.820312 28.679688 31.820312 C 28.683594 31.820312 28.683594 31.820312 28.6875 31.820312 C 28.847656 31.847656 32.542969 32.425781 33.589844 29.320312 C 34.238281 27.394531 32.8125 26.464844 32.359375 26.222656 C 31.308594 25.667969 29.769531 25.640625 28.980469 26.695312 C 28.449219 27.402344 28.351562 28.007812 28.707031 28.394531 C 29.125 28.847656 30.03125 28.921875 30.613281 28.550781 C 30.753906 28.464844 30.9375 28.503906 31.027344 28.644531 C 31.113281 28.785156 31.070312 28.96875 30.933594 29.058594 C 30.101562 29.585938 28.878906 29.46875 28.265625 28.800781 C 28 28.507812 27.488281 27.683594 28.503906 26.332031 C 29.488281 25.015625 31.371094 25.023438 32.636719 25.695312 C 33.789062 26.304688 34.789062 27.628906 34.152344 29.511719 C 33.082031 32.695312 29.570312 32.519531 28.757812 32.433594 C 27.160156 34.214844 25.550781 34.707031 24.261719 34.707031 C 22.683594 34.707031 21.582031 33.972656 21.5625 33.960938 C 21.429688 33.863281 21.394531 33.679688 21.488281 33.542969 C 21.578125 33.40625 21.765625 33.371094 21.898438 33.464844 C 22.011719 33.539062 24.199219 34.980469 26.78125 33.351562 C 26.171875 33.542969 25.5625 33.640625 24.976562 33.640625 C 24.167969 33.640625 23.398438 33.457031 22.730469 33.074219 C 21.464844 32.359375 20.789062 31.074219 20.871094 29.554688 Z M 40.089844 25.136719 C 39.648438 24.992188 39.191406 24.898438 38.699219 24.765625 C 38.9375 24.667969 39.195312 24.636719 39.453125 24.636719 C 39.707031 24.636719 39.964844 24.675781 40.214844 24.757812 C 40.464844 24.839844 40.699219 24.96875 40.902344 25.140625 C 41.097656 25.320312 41.25 25.550781 41.316406 25.800781 C 41.109375 25.640625 40.925781 25.507812 40.722656 25.398438 C 40.515625 25.292969 40.304688 25.210938 40.089844 25.136719 Z M 28.097656 22.539062 C 28.101562 22.5 28.59375 19.019531 32.171875 18.777344 C 35.734375 18.535156 36.882812 21.527344 36.894531 21.558594 C 36.949219 21.714844 36.871094 21.882812 36.71875 21.941406 C 36.5625 22 36.390625 21.921875 36.335938 21.765625 C 36.292969 21.660156 35.320312 19.164062 32.214844 19.375 C 29.113281 19.585938 28.703125 22.492188 28.6875 22.613281 C 28.667969 22.765625 28.539062 22.875 28.390625 22.875 C 28.378906 22.875 28.363281 22.875 28.351562 22.871094 C 28.191406 22.851562 28.074219 22.699219 28.097656 22.539062 Z M 39.050781 24.167969 C 39.550781 23.972656 40.097656 23.910156 40.644531 23.960938 C 41.1875 24.007812 41.734375 24.199219 42.191406 24.523438 C 42.648438 24.847656 43.007812 25.308594 43.226562 25.808594 C 43.453125 26.308594 43.566406 26.84375 43.574219 27.378906 C 43.398438 26.875 43.207031 26.390625 42.949219 25.953125 C 42.886719 25.839844 42.8125 25.738281 42.746094 25.632812 C 42.667969 25.535156 42.597656 25.433594 42.511719 25.34375 C 42.347656 25.15625 42.167969 24.984375 41.964844 24.847656 C 41.566406 24.558594 41.09375 24.371094 40.601562 24.265625 C 40.101562 24.167969 39.582031 24.136719 39.050781 24.167969 Z M 25.476562 24.6875 C 25.292969 24.664062 25.105469 24.644531 24.902344 24.59375 C 24.988281 24.535156 25.078125 24.496094 25.171875 24.453125 C 25.269531 24.425781 25.363281 24.390625 25.464844 24.371094 C 25.660156 24.335938 25.867188 24.328125 26.070312 24.351562 C 26.269531 24.378906 26.472656 24.433594 26.652344 24.527344 C 26.835938 24.621094 27.011719 24.75 27.113281 24.933594 C 26.914062 24.886719 26.734375 24.851562 26.550781 24.820312 C 26.375 24.792969 26.195312 24.769531 26.019531 24.746094 Z M 21.421875 61.867188 C 21.542969 61.890625 21.667969 61.929688 21.777344 62.023438 C 21.65625 62.097656 21.550781 62.140625 21.445312 62.179688 C 21.339844 62.21875 21.234375 62.242188 21.128906 62.265625 C 21.023438 62.289062 20.917969 62.296875 20.808594 62.304688 C 20.695312 62.304688 20.578125 62.308594 20.441406 62.277344 C 20.585938 62.035156 20.816406 61.921875 21.054688 61.871094 C 21.175781 61.851562 21.300781 61.847656 21.421875 61.867188 Z M 31.921875 20.972656 C 31.746094 21.0625 31.597656 21.144531 31.449219 21.234375 C 31.304688 21.324219 31.164062 21.410156 31.03125 21.507812 C 30.898438 21.605469 30.761719 21.699219 30.628906 21.8125 C 30.492188 21.917969 30.359375 22.039062 30.195312 22.148438 C 30.214844 21.953125 30.289062 21.769531 30.394531 21.605469 C 30.496094 21.4375 30.640625 21.296875 30.800781 21.183594 C 30.960938 21.070312 31.148438 20.988281 31.339844 20.945312 C 31.53125 20.902344 31.734375 20.898438 31.921875 20.972656 Z M 18.21875 66.964844 C 18.050781 67.03125 17.882812 67.101562 17.71875 67.195312 C 17.546875 67.277344 17.386719 67.382812 17.191406 67.476562 C 17.261719 67.273438 17.378906 67.089844 17.535156 66.941406 C 17.6875 66.789062 17.875 66.671875 18.078125 66.59375 C 18.28125 66.511719 18.5 66.476562 18.714844 66.488281 C 18.929688 66.5 19.144531 66.550781 19.324219 66.679688 C 18.90625 66.75 18.558594 66.832031 18.21875 66.964844 Z M 81.066406 51.4375 C 81.707031 51.4375 81.707031 52.433594 81.066406 52.433594 C 80.425781 52.433594 80.425781 51.4375 81.066406 51.4375 Z M 56.410156 40.34375 C 56.285156 39.140625 56.839844 37.546875 58.800781 37.003906 C 59.429688 36.828125 60.070312 36.875 60.605469 37.132812 C 61.308594 37.472656 61.664062 38.089844 61.601562 38.867188 C 61.527344 39.820312 61.070312 40.257812 60.703125 40.453125 C 60.15625 40.742188 59.4375 40.707031 58.820312 40.359375 C 58.675781 40.277344 58.628906 40.09375 58.707031 39.953125 C 58.789062 39.808594 58.96875 39.757812 59.113281 39.835938 C 59.546875 40.082031 60.058594 40.117188 60.417969 39.925781 C 60.757812 39.742188 60.960938 39.359375 61.003906 38.820312 C 61.046875 38.28125 60.832031 37.90625 60.34375 37.671875 C 59.9375 37.476562 59.449219 37.441406 58.957031 37.578125 C 57.355469 38.023438 56.902344 39.3125 57.003906 40.28125 C 57.117188 41.382812 57.980469 42.617188 59.613281 42.722656 C 60.730469 42.792969 61.554688 42.535156 62.15625 42.15625 C 62.171875 42.140625 62.195312 42.128906 62.21875 42.117188 C 63.324219 41.390625 63.648438 40.273438 63.671875 40.203125 C 63.714844 40.042969 63.878906 39.949219 64.035156 39.996094 C 64.195312 40.039062 64.289062 40.203125 64.246094 40.363281 C 64.242188 40.378906 64.03125 41.113281 63.398438 41.851562 C 65.117188 41.652344 66.644531 42.246094 67.484375 42.675781 C 68.804688 43.351562 70.15625 43.734375 71.496094 43.800781 C 76.90625 44.089844 81.433594 40.660156 81.480469 40.628906 C 81.613281 40.527344 81.800781 40.550781 81.898438 40.683594 C 81.996094 40.816406 81.972656 41.003906 81.84375 41.101562 C 81.660156 41.246094 77.46875 44.417969 72.15625 44.417969 C 71.925781 44.417969 71.695312 44.414062 71.464844 44.402344 C 70.039062 44.324219 68.609375 43.925781 67.210938 43.210938 C 66.273438 42.730469 64.414062 42.023438 62.457031 42.664062 C 61.839844 43.050781 61.03125 43.332031 59.976562 43.332031 C 59.84375 43.332031 59.710938 43.328125 59.574219 43.320312 C 57.597656 43.191406 56.546875 41.683594 56.410156 40.34375 Z M 57.105469 33.992188 C 56.90625 33.902344 56.707031 33.808594 56.511719 33.679688 C 56.742188 33.648438 56.964844 33.660156 57.1875 33.691406 C 57.40625 33.722656 57.625 33.777344 57.835938 33.847656 C 58.046875 33.921875 58.253906 34.015625 58.445312 34.136719 C 58.632812 34.265625 58.832031 34.421875 58.917969 34.648438 C 58.710938 34.539062 58.515625 34.488281 58.3125 34.421875 C 58.109375 34.359375 57.910156 34.296875 57.707031 34.222656 C 57.503906 34.15625 57.304688 34.082031 57.105469 33.992188 Z M 55.03125 45.519531 C 54.695312 45.710938 54.371094 45.925781 54.039062 46.164062 C 54.25 45.8125 54.539062 45.511719 54.859375 45.257812 C 55.1875 45.011719 55.542969 44.800781 55.914062 44.636719 C 56.285156 44.472656 56.675781 44.34375 57.066406 44.253906 C 57.460938 44.164062 57.867188 44.109375 58.273438 44.121094 L 57.15625 44.550781 C 56.792969 44.695312 56.429688 44.847656 56.074219 45 C 55.722656 45.160156 55.375 45.332031 55.03125 45.519531 Z M 49.96875 27.839844 C 49.542969 27.746094 49.105469 27.683594 48.652344 27.652344 C 49.089844 27.523438 49.554688 27.496094 50.015625 27.535156 C 50.472656 27.570312 50.929688 27.695312 51.355469 27.894531 C 51.460938 27.949219 51.566406 27.996094 51.667969 28.0625 C 51.765625 28.125 51.863281 28.191406 51.960938 28.261719 C 52.054688 28.328125 52.136719 28.417969 52.226562 28.496094 C 52.269531 28.535156 52.3125 28.574219 52.355469 28.617188 L 52.464844 28.753906 C 52.777344 29.105469 52.957031 29.550781 53.074219 29.984375 C 52.804688 29.613281 52.566406 29.25 52.238281 28.964844 C 51.921875 28.675781 51.574219 28.425781 51.1875 28.253906 C 50.804688 28.066406 50.390625 27.933594 49.96875 27.839844 Z M 58.3125 33.613281 C 57.722656 33.367188 57.125 33.152344 56.511719 32.882812 C 56.847656 32.855469 57.179688 32.894531 57.507812 32.957031 C 57.832031 33.023438 58.15625 33.117188 58.464844 33.246094 C 58.773438 33.375 59.074219 33.539062 59.347656 33.738281 C 59.617188 33.941406 59.863281 34.1875 60.03125 34.476562 C 59.742188 34.300781 59.46875 34.148438 59.183594 34.003906 C 58.894531 33.863281 58.609375 33.738281 58.3125 33.613281 Z M 54.308594 45.140625 C 54.292969 44.882812 54.4375 44.628906 54.617188 44.449219 C 54.800781 44.265625 55.019531 44.132812 55.25 44.035156 C 55.476562 43.941406 55.714844 43.875 55.957031 43.84375 C 56.199219 43.8125 56.445312 43.800781 56.691406 43.851562 C 56.246094 44.078125 55.816406 44.226562 55.40625 44.402344 C 55.199219 44.488281 55 44.582031 54.8125 44.695312 C 54.628906 44.808594 54.457031 44.933594 54.308594 45.140625 Z M 95.496094 78.03125 C 96.136719 78.03125 96.136719 79.03125 95.496094 79.03125 C 94.855469 79.03125 94.855469 78.03125 95.496094 78.03125 Z M 97.78125 27.929688 C 97.75 27.867188 97.738281 27.804688 97.738281 27.738281 C 97.738281 27.683594 97.738281 27.636719 97.738281 27.582031 C 97.738281 27.492188 97.761719 27.410156 97.808594 27.332031 C 97.832031 27.296875 97.859375 27.265625 97.882812 27.230469 C 97.945312 27.167969 98.019531 27.125 98.101562 27.101562 C 98.148438 27.097656 98.191406 27.089844 98.234375 27.085938 C 98.300781 27.082031 98.367188 27.097656 98.425781 27.128906 C 98.488281 27.148438 98.542969 27.183594 98.585938 27.234375 C 98.632812 27.277344 98.667969 27.332031 98.6875 27.390625 C 98.71875 27.453125 98.734375 27.515625 98.730469 27.582031 C 98.730469 27.636719 98.730469 27.683594 98.730469 27.738281 C 98.730469 27.828125 98.707031 27.910156 98.664062 27.988281 C 98.636719 28.023438 98.613281 28.054688 98.585938 28.089844 C 98.523438 28.152344 98.453125 28.195312 98.367188 28.21875 C 98.324219 28.222656 98.28125 28.230469 98.238281 28.234375 C 98.167969 28.238281 98.101562 28.222656 98.046875 28.191406 C 97.984375 28.171875 97.929688 28.136719 97.886719 28.089844 C 97.835938 28.042969 97.804688 27.992188 97.78125 27.929688 Z M 103.277344 90.3125 C 103.273438 90.269531 103.265625 90.226562 103.261719 90.183594 C 103.257812 90.113281 103.273438 90.046875 103.304688 89.988281 C 103.324219 89.929688 103.359375 89.875 103.40625 89.832031 C 103.453125 89.78125 103.503906 89.746094 103.566406 89.726562 C 103.628906 89.695312 103.691406 89.679688 103.757812 89.683594 C 103.78125 89.683594 103.804688 89.683594 103.824219 89.683594 C 103.914062 89.683594 104 89.707031 104.078125 89.75 C 104.109375 89.777344 104.144531 89.800781 104.179688 89.828125 C 104.238281 89.890625 104.28125 89.964844 104.304688 90.046875 C 104.3125 90.09375 104.316406 90.136719 104.324219 90.179688 C 104.324219 90.246094 104.3125 90.3125 104.28125 90.371094 C 104.257812 90.433594 104.226562 90.488281 104.175781 90.53125 C 104.128906 90.578125 104.078125 90.613281 104.015625 90.632812 C 103.957031 90.667969 103.894531 90.679688 103.824219 90.679688 C 103.804688 90.679688 103.78125 90.679688 103.757812 90.679688 C 103.667969 90.679688 103.585938 90.65625 103.507812 90.609375 C 103.472656 90.585938 103.441406 90.558594 103.40625 90.53125 C 103.34375 90.472656 103.300781 90.398438 103.277344 90.3125 Z M 88.59375 87.953125 C 88.59375 87.789062 88.726562 87.65625 88.890625 87.65625 L 90.902344 87.65625 L 91.183594 87.375 L 91.183594 85.355469 C 91.183594 85.191406 91.316406 85.058594 91.480469 85.058594 C 91.644531 85.058594 91.78125 85.191406 91.78125 85.355469 L 91.78125 87.375 L 92.058594 87.65625 L 94.070312 87.65625 C 94.238281 87.65625 94.371094 87.789062 94.371094 87.953125 C 94.371094 88.121094 94.238281 88.253906 94.070312 88.253906 L 92.058594 88.253906 L 91.78125 88.535156 L 91.78125 90.554688 C 91.78125 90.71875 91.644531 90.851562 91.480469 90.851562 C 91.316406 90.851562 91.183594 90.71875 91.183594 90.554688 L 91.183594 88.535156 L 90.902344 88.253906 L 88.890625 88.253906 C 88.726562 88.253906 88.59375 88.121094 88.59375 87.953125 Z M 58.40625 32.589844 C 57.953125 32.394531 57.492188 32.210938 57.019531 32.035156 C 57.527344 32.050781 58.023438 32.152344 58.511719 32.296875 C 58.996094 32.441406 59.46875 32.644531 59.914062 32.902344 C 60.355469 33.164062 60.773438 33.484375 61.105469 33.890625 C 61.4375 34.285156 61.675781 34.777344 61.726562 35.285156 C 61.511719 34.824219 61.226562 34.433594 60.878906 34.101562 C 60.703125 33.933594 60.519531 33.78125 60.324219 33.640625 C 60.128906 33.496094 59.925781 33.367188 59.714844 33.246094 C 59.296875 32.996094 58.855469 32.789062 58.40625 32.589844 Z M 71.148438 25.140625 C 71.148438 24.972656 71.28125 24.839844 71.449219 24.839844 L 74.714844 24.839844 L 75.636719 23.914062 L 75.636719 20.636719 C 75.636719 20.472656 75.769531 20.339844 75.933594 20.339844 C 76.101562 20.339844 76.234375 20.472656 76.234375 20.636719 L 76.234375 23.910156 L 77.15625 24.839844 L 80.421875 24.839844 C 80.585938 24.839844 80.71875 24.972656 80.71875 25.136719 C 80.71875 25.304688 80.585938 25.4375 80.421875 25.4375 L 77.15625 25.4375 L 76.234375 26.363281 L 76.234375 29.636719 C 76.234375 29.800781 76.101562 29.9375 75.933594 29.9375 C 75.769531 29.9375 75.636719 29.800781 75.636719 29.636719 L 75.636719 26.363281 L 74.714844 25.4375 L 71.449219 25.4375 C 71.28125 25.4375 71.148438 25.304688 71.148438 25.140625 Z M 19.488281 66 C 19.207031 65.992188 18.925781 65.992188 18.640625 66.035156 C 18.355469 66.0625 18.070312 66.128906 17.761719 66.175781 C 18 65.980469 18.273438 65.820312 18.574219 65.730469 C 18.871094 65.628906 19.191406 65.589844 19.503906 65.605469 C 19.820312 65.613281 20.132812 65.691406 20.421875 65.8125 C 20.707031 65.933594 20.980469 66.101562 21.183594 66.339844 C 20.605469 66.148438 20.054688 66.019531 19.488281 66 Z M 51.441406 29.5625 C 51.234375 29.371094 51.011719 29.199219 50.773438 29.042969 C 50.535156 28.894531 50.285156 28.753906 50.023438 28.628906 C 49.761719 28.5 49.496094 28.375 49.214844 28.25 C 49.523438 28.214844 49.832031 28.257812 50.132812 28.339844 C 50.429688 28.417969 50.71875 28.542969 50.988281 28.710938 C 51.253906 28.878906 51.492188 29.105469 51.675781 29.363281 C 51.863281 29.621094 51.976562 29.929688 52.007812 30.234375 C 51.820312 29.980469 51.648438 29.753906 51.441406 29.5625 Z M 31.78125 26.695312 C 31.5625 26.570312 31.320312 26.464844 31.058594 26.359375 C 31.335938 26.296875 31.625 26.324219 31.902344 26.410156 C 32.179688 26.496094 32.445312 26.652344 32.648438 26.882812 C 32.851562 27.105469 32.988281 27.398438 33.015625 27.695312 C 33.050781 27.839844 33.023438 27.988281 33.019531 28.125 C 32.996094 28.269531 32.957031 28.40625 32.90625 28.535156 C 32.867188 28.394531 32.855469 28.261719 32.820312 28.132812 L 32.773438 27.945312 C 32.761719 27.882812 32.738281 27.824219 32.714844 27.765625 C 32.640625 27.527344 32.507812 27.324219 32.351562 27.148438 C 32.195312 26.972656 32.003906 26.820312 31.78125 26.695312 Z M 21.855469 61.441406 C 21.679688 61.449219 21.503906 61.453125 21.320312 61.464844 C 21.136719 61.472656 20.953125 61.492188 20.746094 61.480469 C 20.890625 61.335938 21.066406 61.230469 21.253906 61.160156 C 21.441406 61.085938 21.644531 61.050781 21.84375 61.042969 C 22.046875 61.039062 22.253906 61.070312 22.445312 61.140625 C 22.632812 61.210938 22.820312 61.316406 22.945312 61.484375 C 22.742188 61.464844 22.5625 61.453125 22.382812 61.449219 C 22.203125 61.4375 22.03125 61.4375 21.855469 61.441406 Z M 39.195312 38.527344 C 39.394531 38.636719 44.160156 41.140625 49.015625 36.96875 C 49.140625 36.863281 49.332031 36.875 49.4375 37.003906 C 49.546875 37.128906 49.53125 37.316406 49.40625 37.425781 C 47.113281 39.394531 44.808594 39.945312 42.9375 39.945312 C 40.589844 39.945312 38.9375 39.070312 38.910156 39.054688 C 38.765625 38.976562 38.710938 38.796875 38.789062 38.648438 C 38.867188 38.503906 39.050781 38.449219 39.195312 38.527344 Z M 24.414062 46.664062 C 24.378906 46.5625 24.347656 46.460938 24.3125 46.355469 C 24.289062 46.269531 24.289062 46.179688 24.3125 46.089844 C 24.328125 46.050781 24.347656 46.011719 24.363281 45.972656 C 24.40625 45.894531 24.46875 45.835938 24.542969 45.792969 C 24.582031 45.777344 24.621094 45.757812 24.660156 45.742188 C 24.726562 45.722656 24.792969 45.71875 24.859375 45.734375 C 24.925781 45.738281 24.988281 45.757812 25.046875 45.792969 C 25.105469 45.824219 25.152344 45.867188 25.183594 45.921875 C 25.230469 45.96875 25.257812 46.023438 25.273438 46.089844 C 25.308594 46.191406 25.339844 46.292969 25.375 46.398438 C 25.398438 46.484375 25.398438 46.574219 25.375 46.664062 C 25.359375 46.703125 25.339844 46.742188 25.324219 46.785156 C 25.28125 46.859375 25.222656 46.917969 25.144531 46.964844 C 25.105469 46.980469 25.066406 46.996094 25.027344 47.011719 C 24.960938 47.03125 24.894531 47.035156 24.828125 47.019531 C 24.761719 47.015625 24.699219 47 24.640625 46.960938 C 24.585938 46.929688 24.535156 46.886719 24.503906 46.832031 C 24.457031 46.785156 24.425781 46.730469 24.414062 46.664062 Z M 19.890625 69.359375 C 19.890625 69.195312 20.023438 69.058594 20.1875 69.058594 C 21.121094 69.058594 21.789062 68.765625 22.175781 68.183594 C 22.742188 67.332031 22.507812 66.167969 21.640625 65.535156 C 20.847656 64.960938 19.515625 64.4375 17.648438 65.230469 C 17.566406 65.265625 17.472656 65.261719 17.390625 65.21875 C 17.308594 65.171875 17.253906 65.09375 17.238281 65.003906 C 17.230469 64.960938 16.527344 60.507812 20.359375 59.191406 C 24.246094 57.855469 26.308594 61.011719 26.328125 61.042969 C 26.417969 61.183594 26.375 61.371094 26.234375 61.457031 C 26.097656 61.546875 25.914062 61.503906 25.824219 61.367188 C 25.75 61.25 23.984375 58.578125 20.554688 59.753906 C 17.769531 60.710938 17.710938 63.511719 17.785156 64.53125 C 19.71875 63.847656 21.128906 64.421875 21.988281 65.050781 C 23.117188 65.871094 23.417969 67.390625 22.671875 68.511719 C 22.167969 69.269531 21.332031 69.65625 20.1875 69.65625 C 20.023438 69.660156 19.890625 69.523438 19.890625 69.359375 Z M 17.453125 67.628906 C 17.589844 67.550781 17.734375 67.488281 17.902344 67.476562 C 17.75 67.769531 17.574219 67.976562 17.40625 68.1875 C 17.324219 68.289062 17.234375 68.386719 17.160156 68.492188 C 17.078125 68.597656 17.003906 68.707031 16.917969 68.851562 C 16.835938 68.707031 16.835938 68.523438 16.875 68.363281 C 16.914062 68.199219 17 68.058594 17.097656 67.933594 C 17.199219 67.808594 17.320312 67.707031 17.453125 67.628906 Z M 51.175781 30.042969 C 51.289062 30.207031 51.382812 30.402344 51.363281 30.605469 C 51.226562 30.464844 51.089844 30.367188 50.953125 30.261719 L 50.53125 29.957031 C 50.25 29.75 49.964844 29.542969 49.707031 29.238281 C 49.90625 29.242188 50.089844 29.296875 50.269531 29.363281 C 50.445312 29.429688 50.609375 29.523438 50.765625 29.636719 C 50.917969 29.746094 51.0625 29.882812 51.175781 30.042969 Z M 39.847656 37.773438 C 40.433594 37.855469 41.015625 37.898438 41.59375 37.921875 C 42.171875 37.941406 42.75 37.941406 43.328125 37.90625 C 43.617188 37.886719 43.90625 37.875 44.195312 37.839844 L 44.625 37.796875 C 44.769531 37.777344 44.914062 37.757812 45.058594 37.742188 C 45.347656 37.707031 45.632812 37.652344 45.921875 37.609375 C 46.210938 37.566406 46.496094 37.503906 46.792969 37.464844 C 46.523438 37.585938 46.25 37.703125 45.96875 37.800781 C 45.6875 37.886719 45.402344 37.984375 45.113281 38.046875 C 44.535156 38.191406 43.941406 38.261719 43.347656 38.304688 C 42.753906 38.332031 42.15625 38.3125 41.566406 38.230469 C 40.976562 38.148438 40.390625 38.019531 39.847656 37.773438 Z M 44.128906 32.4375 C 48.6875 29.980469 51.09375 32.761719 51.117188 32.792969 C 51.222656 32.917969 51.207031 33.105469 51.082031 33.210938 C 50.957031 33.320312 50.769531 33.300781 50.664062 33.175781 C 50.570312 33.066406 48.363281 30.566406 43.933594 33.242188 C 43.832031 33.300781 43.707031 33.296875 43.609375 33.230469 C 43.511719 33.164062 43.464844 33.046875 43.484375 32.929688 C 43.488281 32.910156 43.8125 31.066406 42.746094 29.714844 C 42.039062 28.820312 40.875 28.320312 39.292969 28.238281 C 36.578125 28.097656 35.132812 29.808594 34.90625 31.570312 C 34.730469 32.957031 35.332031 34.519531 37.082031 34.882812 C 39.03125 35.285156 40.222656 34.445312 40.539062 33.4375 C 40.785156 32.648438 40.511719 31.625 39.34375 31.121094 C 38.546875 30.78125 37.871094 30.773438 37.476562 31.097656 C 37.246094 31.292969 37.148438 31.582031 37.21875 31.875 C 37.304688 32.246094 37.628906 32.527344 38.109375 32.644531 C 38.269531 32.683594 38.367188 32.84375 38.328125 33.003906 C 38.289062 33.164062 38.128906 33.265625 37.96875 33.226562 C 37.269531 33.054688 36.773438 32.601562 36.636719 32.011719 C 36.519531 31.503906 36.695312 30.976562 37.09375 30.640625 C 37.664062 30.160156 38.570312 30.136719 39.578125 30.570312 C 40.867188 31.125 41.496094 32.378906 41.109375 33.617188 C 40.777344 34.671875 39.726562 35.585938 38.046875 35.585938 C 37.710938 35.585938 37.347656 35.550781 36.960938 35.46875 C 34.851562 35.03125 34.109375 33.101562 34.316406 31.492188 C 34.566406 29.527344 36.238281 27.480469 39.324219 27.644531 C 41.089844 27.734375 42.398438 28.308594 43.21875 29.347656 C 44.054688 30.414062 44.152344 31.699219 44.128906 32.4375 Z M 42.539062 37.175781 C 43.023438 37.152344 43.5 37.109375 43.976562 37.035156 C 44.449219 36.96875 44.921875 36.875 45.386719 36.753906 C 45.859375 36.644531 46.316406 36.488281 46.792969 36.34375 C 46.390625 36.632812 45.949219 36.878906 45.480469 37.050781 C 45.25 37.152344 45.007812 37.210938 44.769531 37.285156 C 44.648438 37.316406 44.523438 37.335938 44.402344 37.363281 C 44.28125 37.390625 44.15625 37.414062 44.03125 37.429688 C 43.785156 37.464844 43.535156 37.484375 43.285156 37.5 C 43.035156 37.503906 42.785156 37.507812 42.539062 37.488281 C 42.042969 37.453125 41.546875 37.375 41.078125 37.199219 C 41.574219 37.210938 42.058594 37.203125 42.539062 37.175781 Z M 42.917969 36.695312 C 42.757812 36.65625 42.597656 36.59375 42.453125 36.484375 C 42.625 36.429688 42.78125 36.40625 42.9375 36.386719 C 43.09375 36.367188 43.246094 36.351562 43.394531 36.347656 C 43.546875 36.339844 43.695312 36.335938 43.847656 36.335938 C 44 36.335938 44.152344 36.332031 44.335938 36.347656 C 44.222656 36.488281 44.070312 36.582031 43.910156 36.644531 C 43.753906 36.703125 43.585938 36.738281 43.414062 36.746094 C 43.25 36.753906 43.082031 36.738281 42.917969 36.695312 Z M 34.644531 81.886719 C 35.035156 81.589844 35.527344 81.46875 36.011719 81.46875 C 36.25 81.46875 36.492188 81.5 36.722656 81.566406 C 36.953125 81.636719 37.183594 81.730469 37.375 81.886719 C 36.890625 81.886719 36.453125 81.863281 36.007812 81.867188 C 35.785156 81.867188 35.566406 81.867188 35.339844 81.875 C 35.117188 81.878906 34.890625 81.898438 34.644531 81.886719 Z M 60.890625 95.792969 C 61.046875 95.546875 61.164062 95.285156 61.269531 95.011719 C 61.46875 94.457031 61.578125 93.867188 61.710938 93.246094 C 61.808594 93.550781 61.832031 93.875 61.820312 94.195312 C 61.804688 94.515625 61.753906 94.839844 61.640625 95.144531 C 61.53125 95.453125 61.359375 95.746094 61.132812 95.992188 C 60.898438 96.226562 60.601562 96.398438 60.289062 96.464844 C 60.53125 96.246094 60.730469 96.035156 60.890625 95.792969 Z M 48.449219 73.640625 C 48.523438 73.117188 48.816406 72.640625 49.1875 72.257812 C 49.5625 71.871094 50.039062 71.597656 50.535156 71.40625 C 50.660156 71.363281 50.78125 71.308594 50.910156 71.277344 L 51.296875 71.183594 C 51.425781 71.148438 51.558594 71.140625 51.6875 71.125 C 51.816406 71.105469 51.949219 71.09375 52.078125 71.082031 C 52.34375 71.078125 52.601562 71.078125 52.863281 71.085938 C 53.121094 71.117188 53.378906 71.148438 53.632812 71.195312 C 53.371094 71.238281 53.117188 71.257812 52.867188 71.28125 C 52.613281 71.316406 52.363281 71.359375 52.113281 71.390625 C 51.621094 71.496094 51.128906 71.585938 50.675781 71.777344 C 50.214844 71.949219 49.777344 72.179688 49.394531 72.492188 C 49.019531 72.800781 48.679688 73.175781 48.449219 73.640625 Z M 53.128906 71.730469 C 53.453125 71.730469 53.777344 71.761719 54.089844 71.859375 C 53.769531 71.925781 53.464844 71.980469 53.15625 72.039062 C 52.851562 72.097656 52.554688 72.164062 52.257812 72.234375 C 51.964844 72.3125 51.671875 72.394531 51.386719 72.496094 C 51.101562 72.605469 50.824219 72.730469 50.535156 72.878906 C 50.714844 72.605469 50.972656 72.382812 51.253906 72.214844 C 51.539062 72.050781 51.847656 71.925781 52.164062 71.847656 C 52.480469 71.769531 52.804688 71.730469 53.128906 71.730469 Z M 54.089844 81.886719 C 53.652344 81.914062 53.226562 81.964844 52.8125 82.042969 C 52.398438 82.125 51.996094 82.234375 51.613281 82.394531 C 51.226562 82.539062 50.867188 82.746094 50.523438 82.984375 C 50.175781 83.214844 49.882812 83.523438 49.566406 83.832031 C 49.746094 83.433594 49.988281 83.042969 50.328125 82.746094 L 50.449219 82.628906 C 50.492188 82.589844 50.539062 82.558594 50.585938 82.523438 C 50.675781 82.460938 50.765625 82.390625 50.863281 82.328125 C 51.058594 82.214844 51.253906 82.105469 51.464844 82.023438 C 51.886719 81.859375 52.332031 81.761719 52.777344 81.738281 C 53.222656 81.714844 53.667969 81.75 54.089844 81.886719 Z M 60.382812 78.914062 C 60.046875 78.710938 59.671875 78.550781 59.273438 78.429688 C 59.691406 78.386719 60.128906 78.464844 60.523438 78.636719 C 60.921875 78.808594 61.292969 79.078125 61.5625 79.429688 C 61.640625 79.511719 61.6875 79.613281 61.75 79.703125 L 61.835938 79.84375 C 61.859375 79.894531 61.882812 79.945312 61.90625 79.996094 C 61.945312 80.097656 61.992188 80.195312 62.027344 80.300781 C 62.054688 80.40625 62.082031 80.511719 62.105469 80.617188 C 62.136719 80.71875 62.148438 80.828125 62.152344 80.933594 L 62.175781 81.253906 C 62.167969 81.46875 62.148438 81.679688 62.117188 81.886719 C 62.058594 81.679688 62.027344 81.476562 61.980469 81.277344 L 61.898438 80.984375 C 61.882812 80.9375 61.871094 80.886719 61.859375 80.839844 C 61.84375 80.792969 61.824219 80.746094 61.804688 80.699219 C 61.769531 80.609375 61.730469 80.515625 61.699219 80.421875 C 61.660156 80.332031 61.609375 80.25 61.566406 80.160156 L 61.5 80.03125 L 61.417969 79.910156 C 61.363281 79.832031 61.320312 79.742188 61.253906 79.675781 C 61.015625 79.375 60.71875 79.121094 60.382812 78.914062 Z M 62.367188 79.753906 C 62.195312 79.398438 61.976562 79.058594 61.710938 78.734375 C 62.082031 78.9375 62.394531 79.242188 62.632812 79.601562 C 62.871094 79.957031 63.046875 80.371094 63.101562 80.808594 C 63.125 80.917969 63.121094 81.027344 63.128906 81.136719 C 63.132812 81.246094 63.140625 81.355469 63.121094 81.464844 L 63.082031 81.785156 C 63.058594 81.894531 63.03125 81.996094 63 82.101562 L 62.957031 82.257812 L 62.894531 82.402344 L 62.765625 82.695312 C 62.664062 82.878906 62.542969 83.054688 62.421875 83.222656 C 62.464844 83.015625 62.535156 82.824219 62.582031 82.625 L 62.648438 82.328125 C 62.65625 82.277344 62.667969 82.230469 62.679688 82.183594 L 62.699219 82.035156 C 62.707031 81.9375 62.722656 81.839844 62.738281 81.742188 L 62.746094 81.449219 C 62.753906 81.351562 62.746094 81.253906 62.734375 81.15625 C 62.726562 81.0625 62.730469 80.964844 62.707031 80.871094 C 62.65625 80.480469 62.535156 80.109375 62.367188 79.753906 Z M 49.683594 82.570312 C 49.523438 82.710938 49.371094 82.859375 49.230469 83.027344 C 49.089844 83.195312 48.972656 83.378906 48.855469 83.574219 C 48.890625 83.347656 48.964844 83.128906 49.066406 82.921875 C 49.175781 82.714844 49.308594 82.523438 49.464844 82.351562 C 49.777344 82 50.164062 81.734375 50.574219 81.523438 C 50.988281 81.316406 51.421875 81.171875 51.867188 81.082031 C 52.3125 80.988281 52.765625 80.941406 53.21875 80.976562 C 52.785156 81.105469 52.363281 81.234375 51.953125 81.378906 C 51.542969 81.53125 51.136719 81.683594 50.753906 81.878906 C 50.367188 82.070312 50.007812 82.296875 49.683594 82.570312 Z M 44.960938 93.363281 C 44.78125 93.054688 44.765625 92.695312 44.832031 92.363281 C 44.863281 92.195312 44.925781 92.035156 45.007812 91.886719 C 45.09375 91.738281 45.199219 91.597656 45.351562 91.5 C 45.34375 91.679688 45.324219 91.835938 45.300781 91.992188 C 45.277344 92.144531 45.25 92.292969 45.21875 92.445312 C 45.191406 92.59375 45.15625 92.738281 45.117188 92.890625 C 45.074219 93.042969 45.035156 93.195312 44.960938 93.363281 Z M 57 94.445312 C 57.273438 93.96875 57.480469 93.449219 57.628906 92.898438 C 57.644531 93.46875 57.511719 94.050781 57.273438 94.582031 C 57.210938 94.714844 57.152344 94.847656 57.074219 94.976562 C 56.996094 95.097656 56.921875 95.222656 56.839844 95.347656 C 56.746094 95.460938 56.652344 95.574219 56.558594 95.6875 C 56.457031 95.796875 56.347656 95.898438 56.242188 96 C 56.140625 96.109375 56.011719 96.183594 55.894531 96.273438 C 55.777344 96.363281 55.660156 96.453125 55.527344 96.511719 L 55.136719 96.714844 C 55 96.769531 54.859375 96.820312 54.722656 96.867188 L 54.519531 96.9375 C 54.445312 96.953125 54.378906 96.96875 54.304688 96.984375 L 53.878906 97.066406 C 53.59375 97.097656 53.304688 97.105469 53.023438 97.105469 C 53.296875 97.015625 53.570312 96.957031 53.835938 96.875 L 54.421875 96.664062 L 54.609375 96.574219 C 54.734375 96.515625 54.855469 96.457031 54.984375 96.402344 L 55.332031 96.1875 C 55.449219 96.125 55.558594 96.039062 55.664062 95.957031 C 55.769531 95.871094 55.886719 95.796875 55.976562 95.699219 C 56.390625 95.355469 56.722656 94.917969 57 94.445312 Z M 51.425781 87.039062 C 50.953125 87.183594 50.484375 87.371094 50.023438 87.597656 C 50.390625 87.234375 50.839844 86.957031 51.320312 86.746094 C 51.800781 86.539062 52.320312 86.414062 52.851562 86.386719 C 52.988281 86.390625 53.121094 86.378906 53.253906 86.390625 L 53.652344 86.4375 C 53.78125 86.460938 53.910156 86.503906 54.039062 86.535156 C 54.101562 86.554688 54.167969 86.566406 54.230469 86.59375 L 54.410156 86.671875 C 54.90625 86.867188 55.320312 87.21875 55.664062 87.59375 C 55.210938 87.347656 54.78125 87.089844 54.304688 86.964844 C 53.839844 86.824219 53.351562 86.75 52.871094 86.785156 C 52.386719 86.804688 51.902344 86.898438 51.425781 87.039062 Z M 46.082031 94.507812 C 46.046875 94.222656 46.066406 93.929688 46.136719 93.648438 C 46.207031 93.371094 46.324219 93.101562 46.519531 92.894531 C 46.425781 93.445312 46.417969 93.949219 46.476562 94.460938 C 46.515625 94.710938 46.550781 94.964844 46.617188 95.21875 C 46.628906 95.285156 46.648438 95.347656 46.667969 95.410156 L 46.71875 95.601562 C 46.753906 95.734375 46.796875 95.859375 46.824219 96.003906 C 46.722656 95.910156 46.628906 95.804688 46.542969 95.6875 C 46.46875 95.570312 46.378906 95.457031 46.324219 95.324219 C 46.199219 95.074219 46.121094 94.792969 46.082031 94.507812 Z M 45.492188 94.445312 C 45.402344 94.179688 45.367188 93.898438 45.359375 93.617188 C 45.355469 93.335938 45.390625 93.050781 45.472656 92.78125 C 45.550781 92.515625 45.671875 92.25 45.859375 92.042969 C 45.78125 92.589844 45.75 93.09375 45.757812 93.609375 C 45.765625 93.867188 45.769531 94.121094 45.796875 94.382812 C 45.800781 94.515625 45.820312 94.644531 45.828125 94.777344 C 45.839844 94.914062 45.859375 95.046875 45.859375 95.191406 C 45.695312 94.964844 45.570312 94.710938 45.492188 94.445312 Z M 55.699219 94.675781 C 55.898438 94.398438 56.046875 94.089844 56.175781 93.773438 C 56.429688 93.132812 56.570312 92.441406 56.730469 91.722656 C 56.816406 92.085938 56.824219 92.457031 56.792969 92.828125 C 56.757812 93.195312 56.6875 93.566406 56.542969 93.917969 C 56.40625 94.269531 56.207031 94.609375 55.933594 94.878906 C 55.65625 95.148438 55.304688 95.335938 54.941406 95.390625 C 55.25 95.179688 55.496094 94.945312 55.699219 94.675781 Z M 78.53125 93.835938 C 78.804688 93.933594 79.0625 94.085938 79.289062 94.277344 C 78.992188 94.238281 78.726562 94.175781 78.449219 94.132812 C 78.175781 94.089844 77.90625 94.058594 77.632812 94.027344 C 77.359375 94 77.085938 93.976562 76.808594 93.960938 L 75.960938 93.914062 C 76.222656 93.769531 76.507812 93.695312 76.796875 93.648438 C 77.085938 93.605469 77.382812 93.601562 77.675781 93.628906 C 77.964844 93.660156 78.253906 93.730469 78.53125 93.835938 Z M 32.039062 36.679688 C 31.816406 36.777344 31.574219 36.835938 31.328125 36.839844 C 31.519531 36.675781 31.707031 36.550781 31.882812 36.40625 C 32.0625 36.273438 32.238281 36.132812 32.410156 35.992188 C 32.761719 35.714844 33.089844 35.417969 33.480469 35.121094 C 33.417969 35.363281 33.300781 35.578125 33.160156 35.773438 C 33.019531 35.972656 32.851562 36.148438 32.660156 36.300781 C 32.472656 36.457031 32.265625 36.585938 32.039062 36.679688 Z M 99.859375 96.75 C 100.324219 96.804688 100.785156 96.9375 101.183594 97.175781 C 100.730469 97.09375 100.285156 97.058594 99.84375 97.058594 C 99.621094 97.0625 99.402344 97.070312 99.183594 97.097656 C 99.074219 97.113281 98.96875 97.125 98.859375 97.136719 L 98.535156 97.203125 C 98.425781 97.214844 98.320312 97.25 98.214844 97.277344 C 98.105469 97.300781 98 97.328125 97.898438 97.367188 L 97.585938 97.46875 C 97.484375 97.507812 97.378906 97.550781 97.277344 97.589844 C 97.171875 97.628906 97.070312 97.671875 96.96875 97.722656 L 96.664062 97.863281 C 96.457031 97.960938 96.265625 98.078125 96.050781 98.175781 C 96.210938 98.007812 96.378906 97.847656 96.558594 97.699219 C 96.746094 97.566406 96.925781 97.414062 97.136719 97.308594 C 97.539062 97.0625 97.992188 96.917969 98.453125 96.808594 C 98.917969 96.710938 99.394531 96.691406 99.859375 96.75 Z M 92.847656 99.648438 C 93.382812 99.496094 93.890625 99.277344 94.425781 99.011719 C 94.265625 99.269531 94.035156 99.476562 93.785156 99.644531 C 93.53125 99.816406 93.253906 99.949219 92.960938 100.03125 C 92.667969 100.117188 92.363281 100.164062 92.058594 100.15625 C 91.757812 100.15625 91.453125 100.089844 91.175781 99.980469 C 91.476562 99.925781 91.757812 99.902344 92.035156 99.84375 C 92.3125 99.796875 92.582031 99.726562 92.847656 99.648438 Z M 77.074219 94.457031 C 77.4375 94.523438 77.8125 94.632812 78.121094 94.855469 C 77.753906 94.789062 77.398438 94.773438 77.042969 94.769531 C 76.6875 94.761719 76.332031 94.777344 75.976562 94.792969 L 74.898438 94.835938 C 74.535156 94.851562 74.175781 94.863281 73.800781 94.855469 C 74.144531 94.703125 74.5 94.605469 74.859375 94.53125 C 75.222656 94.457031 75.589844 94.40625 75.957031 94.390625 C 76.328125 94.375 76.703125 94.390625 77.074219 94.457031 Z M 66.378906 96.695312 C 66.265625 96.738281 66.144531 96.746094 66.027344 96.765625 C 65.910156 96.769531 65.789062 96.769531 65.671875 96.753906 C 65.773438 96.683594 65.875 96.636719 65.96875 96.578125 C 66.0625 96.515625 66.160156 96.46875 66.25 96.410156 C 66.433594 96.296875 66.59375 96.171875 66.75 96.039062 C 67.042969 95.765625 67.277344 95.4375 67.464844 95 C 67.535156 95.234375 67.507812 95.488281 67.425781 95.71875 C 67.34375 95.953125 67.199219 96.164062 67.015625 96.335938 C 66.828125 96.5 66.613281 96.628906 66.378906 96.695312 Z M 59.296875 98.425781 C 59.070312 98.464844 58.839844 98.492188 58.609375 98.507812 C 58.820312 98.40625 59.03125 98.328125 59.238281 98.238281 L 59.539062 98.089844 C 59.636719 98.042969 59.742188 98 59.835938 97.941406 C 59.929688 97.886719 60.027344 97.832031 60.121094 97.777344 C 60.21875 97.726562 60.304688 97.65625 60.394531 97.597656 C 60.582031 97.484375 60.742188 97.335938 60.910156 97.203125 C 61.238281 96.914062 61.515625 96.582031 61.757812 96.214844 C 61.996094 95.847656 62.191406 95.445312 62.324219 95.003906 C 62.351562 95.46875 62.230469 95.941406 62.027344 96.367188 C 61.828125 96.792969 61.527344 97.175781 61.175781 97.5 C 60.8125 97.800781 60.40625 98.0625 59.964844 98.222656 C 59.753906 98.316406 59.519531 98.359375 59.296875 98.425781 Z M 59.796875 95.847656 C 59.644531 95.945312 59.460938 96.019531 59.273438 96.003906 C 59.394531 95.863281 59.492188 95.742188 59.585938 95.617188 C 59.679688 95.488281 59.761719 95.363281 59.855469 95.234375 C 60.035156 94.976562 60.207031 94.710938 60.46875 94.449219 C 60.492188 94.636719 60.457031 94.8125 60.410156 94.984375 C 60.359375 95.152344 60.285156 95.3125 60.179688 95.460938 C 60.078125 95.609375 59.949219 95.746094 59.796875 95.847656 Z M 61.21875 81.976562 C 61.152344 81.761719 61.074219 81.558594 60.976562 81.359375 C 60.789062 80.953125 60.546875 80.578125 60.289062 80.15625 C 60.527344 80.242188 60.730469 80.394531 60.90625 80.570312 C 61.082031 80.75 61.226562 80.957031 61.335938 81.1875 C 61.449219 81.414062 61.511719 81.664062 61.527344 81.917969 C 61.550781 82.171875 61.503906 82.425781 61.40625 82.65625 C 61.335938 82.414062 61.296875 82.191406 61.21875 81.976562 Z M 68.671875 94.277344 C 68.816406 94.625 68.828125 95.027344 68.746094 95.410156 C 68.664062 95.792969 68.476562 96.152344 68.21875 96.453125 C 67.96875 96.753906 67.640625 96.976562 67.308594 97.152344 C 67.136719 97.238281 66.957031 97.300781 66.78125 97.367188 C 66.597656 97.410156 66.414062 97.453125 66.230469 97.480469 C 66.386719 97.371094 66.546875 97.28125 66.699219 97.1875 C 66.851562 97.082031 67 96.988281 67.144531 96.886719 C 67.28125 96.769531 67.433594 96.683594 67.554688 96.554688 C 67.617188 96.496094 67.683594 96.441406 67.746094 96.378906 L 67.917969 96.191406 C 68.136719 95.929688 68.320312 95.640625 68.449219 95.316406 C 68.578125 95 68.65625 94.652344 68.671875 94.277344 Z M 64.613281 97.253906 C 64.59375 97.296875 62.355469 101.222656 57.898438 101.222656 C 57.804688 101.222656 57.710938 101.21875 57.617188 101.214844 C 57.453125 101.210938 57.328125 101.070312 57.332031 100.90625 C 57.339844 100.742188 57.480469 100.605469 57.640625 100.621094 C 61.914062 100.769531 64.074219 97.003906 64.097656 96.964844 C 64.175781 96.824219 64.359375 96.769531 64.5 96.851562 C 64.644531 96.929688 64.695312 97.109375 64.613281 97.253906 Z M 81.21875 94.039062 C 81.007812 94.015625 80.820312 93.980469 80.632812 93.9375 C 80.445312 93.898438 80.257812 93.855469 80.074219 93.804688 C 79.894531 93.75 79.710938 93.695312 79.527344 93.625 C 79.34375 93.550781 79.164062 93.472656 78.984375 93.363281 C 79.191406 93.3125 79.390625 93.304688 79.59375 93.320312 C 79.792969 93.332031 79.988281 93.363281 80.183594 93.421875 C 80.375 93.472656 80.566406 93.546875 80.742188 93.644531 C 80.917969 93.746094 81.089844 93.871094 81.21875 94.039062 Z M 72.113281 87.480469 C 71.757812 87.332031 71.394531 87.203125 71.011719 87.089844 C 71.410156 87.039062 71.816406 87.085938 72.210938 87.183594 C 72.605469 87.285156 72.984375 87.449219 73.335938 87.667969 C 73.511719 87.773438 73.671875 87.90625 73.828125 88.039062 C 73.902344 88.109375 73.972656 88.1875 74.042969 88.261719 C 74.082031 88.296875 74.117188 88.332031 74.148438 88.371094 L 74.242188 88.496094 C 74.5 88.816406 74.664062 89.199219 74.769531 89.585938 C 74.515625 89.269531 74.292969 88.960938 74.007812 88.703125 C 73.878906 88.566406 73.726562 88.449219 73.585938 88.328125 C 73.433594 88.21875 73.285156 88.101562 73.125 88.003906 C 72.800781 87.804688 72.464844 87.628906 72.113281 87.480469 Z M 73.527344 89.183594 C 73.671875 89.394531 73.777344 89.640625 73.800781 89.890625 C 73.621094 89.707031 73.464844 89.542969 73.292969 89.394531 C 73.117188 89.246094 72.941406 89.109375 72.753906 88.980469 C 72.378906 88.722656 71.980469 88.492188 71.566406 88.207031 C 71.820312 88.191406 72.066406 88.246094 72.304688 88.320312 C 72.542969 88.398438 72.769531 88.507812 72.980469 88.652344 C 73.1875 88.796875 73.375 88.976562 73.527344 89.183594 Z M 67.152344 87.289062 C 67.066406 87.386719 66.992188 87.496094 66.890625 87.601562 C 66.910156 87.460938 66.9375 87.324219 66.984375 87.191406 C 67.046875 87.066406 67.089844 86.921875 67.183594 86.8125 C 67.339844 86.566406 67.582031 86.371094 67.855469 86.25 C 68.128906 86.125 68.429688 86.089844 68.714844 86.125 C 69 86.160156 69.273438 86.253906 69.5 86.425781 C 69.21875 86.410156 68.960938 86.410156 68.710938 86.433594 C 68.464844 86.457031 68.230469 86.519531 68.011719 86.613281 C 67.804688 86.714844 67.59375 86.835938 67.417969 87.011719 L 67.347656 87.074219 L 67.285156 87.144531 Z M 66.570312 81.574219 C 66.277344 81.511719 65.984375 81.460938 65.671875 81.40625 C 65.96875 81.296875 66.289062 81.261719 66.605469 81.265625 C 66.921875 81.273438 67.238281 81.324219 67.542969 81.429688 C 67.851562 81.527344 68.136719 81.691406 68.382812 81.898438 C 68.636719 82.097656 68.828125 82.371094 68.949219 82.660156 C 68.691406 82.472656 68.464844 82.289062 68.203125 82.152344 C 67.949219 82.015625 67.6875 81.894531 67.414062 81.808594 C 67.140625 81.714844 66.859375 81.636719 66.570312 81.574219 Z M 68.175781 80.972656 C 67.765625 80.8125 67.339844 80.6875 66.894531 80.589844 C 67.347656 80.519531 67.820312 80.5625 68.273438 80.675781 C 68.726562 80.789062 69.160156 80.988281 69.550781 81.253906 C 69.75 81.382812 69.921875 81.550781 70.09375 81.710938 C 70.246094 81.894531 70.414062 82.0625 70.523438 82.273438 C 70.789062 82.667969 70.929688 83.121094 71.011719 83.574219 C 70.773438 83.175781 70.5625 82.785156 70.273438 82.457031 C 70.140625 82.285156 69.980469 82.136719 69.832031 81.984375 C 69.664062 81.84375 69.507812 81.695312 69.324219 81.582031 C 68.972656 81.332031 68.582031 81.132812 68.175781 80.972656 Z M 22.71875 81.09375 C 23.03125 81.128906 23.34375 81.171875 23.660156 81.242188 C 23.347656 81.335938 23.03125 81.378906 22.710938 81.402344 C 22.394531 81.429688 22.074219 81.429688 21.757812 81.410156 C 21.441406 81.390625 21.125 81.34375 20.8125 81.277344 C 20.5 81.210938 20.191406 81.117188 19.902344 80.976562 C 20.226562 80.953125 20.539062 80.964844 20.851562 80.96875 C 21.164062 80.976562 21.472656 80.992188 21.785156 81.011719 C 22.09375 81.03125 22.40625 81.058594 22.71875 81.09375 Z M 28.230469 97.472656 C 27.589844 97.472656 27.589844 96.476562 28.230469 96.476562 C 28.871094 96.476562 28.871094 97.472656 28.230469 97.472656 Z M 31.582031 35.03125 C 31.566406 35.050781 30.3125 36.949219 27.566406 36.949219 C 27.070312 36.949219 26.523438 36.886719 25.925781 36.738281 C 25.765625 36.699219 25.667969 36.535156 25.707031 36.378906 C 25.746094 36.21875 25.90625 36.117188 26.066406 36.15625 C 29.535156 37.011719 31.015625 34.800781 31.078125 34.707031 C 31.167969 34.570312 31.355469 34.53125 31.492188 34.621094 C 31.628906 34.707031 31.671875 34.894531 31.582031 35.03125 Z M 13.121094 40.324219 C 13.003906 40.207031 13.007812 40.015625 13.125 39.902344 C 16.269531 36.839844 20.769531 36.117188 26.878906 37.6875 C 32.605469 39.160156 34.636719 35.210938 34.71875 35.042969 C 34.792969 34.894531 34.972656 34.835938 35.117188 34.90625 C 35.265625 34.980469 35.328125 35.160156 35.253906 35.304688 C 35.230469 35.351562 32.941406 39.863281 26.730469 38.265625 C 20.757812 36.730469 16.5625 37.386719 13.539062 40.332031 C 13.480469 40.386719 13.40625 40.414062 13.332031 40.414062 C 13.257812 40.417969 13.179688 40.386719 13.121094 40.324219 Z M 33.480469 33.953125 C 33.441406 34.164062 33.359375 34.347656 33.265625 34.527344 C 33.171875 34.703125 33.058594 34.867188 32.925781 35.019531 C 32.792969 35.171875 32.648438 35.3125 32.484375 35.429688 C 32.316406 35.546875 32.132812 35.648438 31.921875 35.6875 C 32.039062 35.507812 32.152344 35.355469 32.265625 35.203125 C 32.382812 35.050781 32.5 34.902344 32.625 34.757812 C 32.875 34.46875 33.132812 34.1875 33.480469 33.953125 Z M 18.40625 36.363281 C 18.195312 36.402344 17.984375 36.453125 17.765625 36.484375 C 17.953125 36.371094 18.148438 36.273438 18.347656 36.179688 C 18.550781 36.097656 18.75 36.003906 18.960938 35.9375 C 19.375 35.789062 19.804688 35.695312 20.234375 35.621094 C 20.671875 35.558594 21.109375 35.519531 21.550781 35.539062 C 21.988281 35.554688 22.429688 35.609375 22.847656 35.761719 C 22.410156 35.773438 21.984375 35.808594 21.558594 35.847656 C 21.136719 35.894531 20.714844 35.945312 20.296875 36.015625 C 20.085938 36.046875 19.875 36.082031 19.667969 36.121094 C 19.457031 36.152344 19.25 36.203125 19.039062 36.238281 C 18.828125 36.277344 18.621094 36.324219 18.40625 36.363281 Z M 20.679688 35.175781 C 20.925781 35.007812 21.207031 34.910156 21.492188 34.84375 C 21.777344 34.777344 22.074219 34.746094 22.371094 34.757812 C 22.664062 34.765625 22.957031 34.8125 23.238281 34.902344 C 23.523438 34.980469 23.789062 35.113281 24.03125 35.285156 C 23.734375 35.269531 23.457031 35.226562 23.183594 35.207031 C 22.90625 35.179688 22.632812 35.167969 22.359375 35.160156 C 21.808594 35.132812 21.261719 35.160156 20.679688 35.175781 Z M 37.933594 83.574219 C 37.136719 83.382812 36.320312 83.34375 35.535156 83.449219 C 35.140625 83.503906 34.753906 83.585938 34.378906 83.722656 C 34.191406 83.78125 34.011719 83.867188 33.828125 83.9375 L 33.308594 84.222656 C 32.589844 84.640625 31.792969 84.980469 30.933594 85.03125 C 30.507812 85.054688 30.066406 84.992188 29.679688 84.808594 C 29.292969 84.628906 28.972656 84.328125 28.753906 83.984375 C 29.042969 84.273438 29.378906 84.511719 29.75 84.628906 C 30.121094 84.753906 30.519531 84.769531 30.90625 84.71875 C 31.292969 84.667969 31.675781 84.5625 32.042969 84.414062 C 32.414062 84.269531 32.761719 84.085938 33.109375 83.882812 L 33.667969 83.585938 C 33.867188 83.511719 34.058594 83.417969 34.265625 83.367188 C 34.667969 83.242188 35.085938 83.164062 35.503906 83.144531 C 36.339844 83.089844 37.1875 83.222656 37.933594 83.574219 Z M 36.6875 88.820312 C 36.890625 88.667969 37.128906 88.566406 37.375 88.566406 C 37.003906 88.875 36.746094 89.199219 36.585938 89.574219 C 36.511719 89.765625 36.453125 89.964844 36.414062 90.179688 C 36.390625 90.285156 36.382812 90.398438 36.359375 90.507812 C 36.347656 90.621094 36.339844 90.738281 36.308594 90.859375 C 36.25 90.753906 36.207031 90.640625 36.164062 90.523438 C 36.140625 90.40625 36.105469 90.289062 36.101562 90.160156 C 36.082031 89.914062 36.125 89.65625 36.21875 89.417969 C 36.320312 89.183594 36.484375 88.96875 36.6875 88.820312 Z M 38.359375 86.683594 C 38.75 86.714844 39.140625 86.808594 39.484375 86.988281 C 39.097656 86.96875 38.722656 86.96875 38.355469 86.992188 C 37.988281 87.019531 37.628906 87.078125 37.28125 87.171875 C 37.101562 87.210938 36.9375 87.28125 36.765625 87.339844 C 36.601562 87.417969 36.429688 87.480469 36.273438 87.574219 C 35.945312 87.742188 35.660156 87.980469 35.34375 88.210938 C 35.53125 87.871094 35.78125 87.550781 36.105469 87.3125 C 36.257812 87.179688 36.441406 87.097656 36.613281 86.992188 C 36.796875 86.914062 36.980469 86.832031 37.179688 86.785156 C 37.558594 86.683594 37.964844 86.648438 38.359375 86.683594 Z M 38.386719 87.601562 C 38.007812 87.6875 37.648438 87.792969 37.3125 87.929688 C 36.976562 88.070312 36.664062 88.253906 36.414062 88.488281 C 36.160156 88.726562 35.972656 89.019531 35.855469 89.355469 C 35.738281 89.691406 35.683594 90.0625 35.648438 90.453125 C 35.519531 90.082031 35.484375 89.679688 35.554688 89.277344 C 35.589844 89.074219 35.660156 88.878906 35.757812 88.691406 C 35.859375 88.507812 35.992188 88.339844 36.144531 88.195312 C 36.449219 87.90625 36.832031 87.730469 37.21875 87.632812 C 37.601562 87.542969 38.003906 87.519531 38.386719 87.601562 Z M 55.238281 89.253906 C 55.023438 89.148438 54.839844 89.03125 54.644531 88.933594 C 54.460938 88.832031 54.265625 88.742188 54.074219 88.65625 C 53.6875 88.484375 53.292969 88.359375 52.84375 88.210938 C 53.066406 88.117188 53.308594 88.101562 53.546875 88.117188 C 53.78125 88.136719 54.015625 88.195312 54.234375 88.292969 C 54.667969 88.480469 55.050781 88.816406 55.238281 89.253906 Z M 53.828125 87.714844 C 53.160156 87.585938 52.476562 87.582031 51.753906 87.601562 C 52.078125 87.429688 52.4375 87.339844 52.796875 87.292969 C 53.160156 87.25 53.535156 87.253906 53.902344 87.324219 C 54.269531 87.390625 54.625 87.539062 54.9375 87.746094 C 55.253906 87.949219 55.496094 88.25 55.664062 88.570312 C 55.367188 88.355469 55.09375 88.152344 54.785156 88.015625 C 54.476562 87.878906 54.15625 87.777344 53.828125 87.714844 Z M 26.976562 80.703125 C 27.195312 80.664062 27.414062 80.621094 27.65625 80.601562 C 27.3125 80.9375 26.867188 81.125 26.410156 81.214844 C 26.183594 81.261719 25.949219 81.277344 25.714844 81.265625 C 25.480469 81.25 25.246094 81.214844 25.027344 81.113281 C 25.484375 80.988281 25.90625 80.910156 26.332031 80.824219 Z M 38.289062 76.003906 C 38.324219 76.117188 38.359375 76.230469 38.386719 76.339844 C 38.316406 76.246094 38.25 76.148438 38.1875 76.054688 L 38.097656 75.910156 C 38.066406 75.863281 38.027344 75.824219 37.988281 75.777344 L 37.777344 75.519531 L 37.539062 75.292969 C 37.464844 75.210938 37.375 75.148438 37.289062 75.085938 C 37.199219 75.019531 37.121094 74.945312 37.019531 74.898438 L 36.742188 74.730469 L 36.445312 74.59375 C 36.046875 74.421875 35.617188 74.304688 35.179688 74.21875 C 34.738281 74.144531 34.285156 74.09375 33.824219 74.070312 C 34.269531 73.929688 34.746094 73.890625 35.214844 73.914062 C 35.683594 73.9375 36.15625 74.042969 36.601562 74.226562 C 37.046875 74.410156 37.449219 74.710938 37.765625 75.074219 C 37.839844 75.171875 37.917969 75.261719 37.984375 75.359375 L 38.15625 75.671875 C 38.183594 75.726562 38.214844 75.777344 38.234375 75.832031 Z M 35.363281 75.078125 C 35.109375 74.988281 34.835938 74.957031 34.5625 74.925781 C 34.289062 74.898438 34.011719 74.886719 33.726562 74.882812 C 33.441406 74.875 33.152344 74.875 32.851562 74.863281 C 33.117188 74.714844 33.40625 74.628906 33.699219 74.570312 C 33.996094 74.515625 34.296875 74.496094 34.601562 74.527344 C 34.90625 74.558594 35.214844 74.632812 35.488281 74.792969 C 35.761719 74.945312 35.996094 75.183594 36.101562 75.46875 C 35.859375 75.28125 35.621094 75.164062 35.363281 75.078125 Z M 26.300781 80.261719 C 25.800781 80.480469 25.257812 80.585938 24.722656 80.65625 C 24.183594 80.726562 23.640625 80.742188 23.097656 80.734375 C 22.558594 80.722656 22.019531 80.675781 21.480469 80.601562 C 21.214844 80.5625 20.949219 80.511719 20.683594 80.460938 C 20.421875 80.398438 20.15625 80.339844 19.898438 80.261719 C 20.171875 80.25 20.441406 80.257812 20.707031 80.265625 C 20.976562 80.269531 21.242188 80.277344 21.511719 80.289062 C 22.042969 80.300781 22.574219 80.332031 23.105469 80.335938 C 23.636719 80.351562 24.167969 80.351562 24.699219 80.34375 C 25.230469 80.335938 25.761719 80.324219 26.300781 80.261719 Z M 33.625 82.960938 C 33.292969 83.050781 32.972656 83.167969 32.625 83.265625 C 32.886719 83.027344 33.191406 82.820312 33.515625 82.671875 C 33.839844 82.511719 34.183594 82.398438 34.535156 82.324219 C 34.886719 82.246094 35.246094 82.214844 35.605469 82.222656 C 35.964844 82.230469 36.324219 82.277344 36.664062 82.402344 C 35.953125 82.480469 35.285156 82.566406 34.617188 82.714844 C 34.285156 82.785156 33.953125 82.863281 33.625 82.960938 Z M 54.347656 95.117188 C 54.246094 95.144531 54.148438 95.175781 54.042969 95.191406 C 54.101562 95.101562 54.171875 95.027344 54.238281 94.953125 C 54.300781 94.878906 54.363281 94.808594 54.425781 94.738281 C 54.546875 94.59375 54.675781 94.464844 54.78125 94.320312 C 54.890625 94.183594 54.996094 94.039062 55.085938 93.882812 C 55.175781 93.726562 55.257812 93.5625 55.324219 93.363281 C 55.425781 93.558594 55.421875 93.785156 55.375 93.996094 C 55.328125 94.207031 55.222656 94.402344 55.09375 94.570312 C 54.964844 94.742188 54.796875 94.871094 54.625 94.984375 C 54.535156 95.035156 54.4375 95.074219 54.347656 95.117188 Z M 54.347656 95.117188 " fill-opacity="1" fill-rule="nonzero"/></g></svg>